<svg width="121" height="23" viewBox="0 0 121 23" fill="none" xmlns="http://www.w3.org/2000/svg">
<path d="M8.89 22.52L8.575 22.415C8.55167 22.485 8.49333 22.5083 8.4 22.485C8.33 22.485 8.27167 22.4617 8.225 22.415C8.10833 22.2283 7.98 22.1467 7.84 22.17C7.7 22.2167 7.51333 22.1933 7.28 22.1H7.245C7.175 22.1 7.09333 22.1117 7 22.135C6.93 22.1817 6.86 22.1933 6.79 22.17L6.545 21.96C6.545 21.9833 6.52167 21.995 6.475 21.995C6.405 21.995 6.335 21.9833 6.265 21.96C6.195 21.9367 6.17167 21.9133 6.195 21.89L5.6 21.575L5.53 21.61L5.145 21.19C5.12167 21.2133 5.09833 21.225 5.075 21.225C5.02833 21.225 4.98167 21.19 4.935 21.12C4.88833 21.0733 4.85333 21.05 4.83 21.05C4.69 20.9333 4.52667 20.8167 4.34 20.7C4.17667 20.6067 4.01333 20.5017 3.85 20.385C3.82667 20.3617 3.815 20.315 3.815 20.245C3.815 20.1983 3.79167 20.1633 3.745 20.14C3.675 20.07 3.59333 20 3.5 19.93C3.40667 19.86 3.34833 19.7783 3.325 19.685L3.185 19.72C3.045 19.4633 2.88167 19.23 2.695 19.02C2.50833 18.81 2.42667 18.53 2.45 18.18H2.38L1.925 18.005V17.9C1.90167 17.9 1.86667 17.9117 1.82 17.935C1.77333 17.935 1.715 17.9233 1.645 17.9C1.48167 17.83 1.33 17.7483 1.19 17.655C1.05 17.5383 0.945 17.3983 0.875 17.235C0.851667 17.165 0.816667 17.13 0.77 17.13C0.746667 17.13 0.723333 17.1183 0.7 17.095C0.653333 16.9783 0.583333 16.8733 0.49 16.78C0.396667 16.6867 0.361667 16.57 0.385 16.43L0.49 15.555C0.676667 15.345 0.816667 15.24 0.91 15.24C1.00333 15.24 1.05 15.345 1.05 15.555L0.84 15.905L0.875 16.325C0.921667 16.3717 0.991667 16.395 1.085 16.395C1.17833 16.395 1.24833 16.3833 1.295 16.36L1.26 16.57L1.4 16.815L1.435 16.745L1.645 16.815L1.82 17.06C1.86667 16.9667 1.91333 16.9667 1.96 17.06C2.00667 17.13 2.03 17.165 2.03 17.165L2.205 17.025C2.18167 16.9083 2.15833 16.7917 2.135 16.675C2.11167 16.535 2.1 16.4067 2.1 16.29C2.1 16.1267 2.11167 16.01 2.135 15.94C2.205 15.6833 2.22833 15.485 2.205 15.345C2.205 15.345 2.25167 15.2633 2.345 15.1C2.43833 14.9133 2.53167 14.7967 2.625 14.75L2.905 14.575L2.975 14.68C2.95167 14.7033 2.905 14.7733 2.835 14.89C2.765 15.0067 2.70667 15.0883 2.66 15.135C2.47333 15.5317 2.40333 15.9283 2.45 16.325C2.45 16.3483 2.45 16.3833 2.45 16.43C2.47333 16.4533 2.47333 16.5 2.45 16.57V17.06C2.49667 17.0833 2.52 17.1767 2.52 17.34C2.52 17.48 2.54333 17.5383 2.59 17.515C2.70667 17.4917 2.8 17.5267 2.87 17.62C2.96333 17.69 3.03333 17.655 3.08 17.515L3.325 17.795H3.675C3.65167 17.8417 3.71 17.8883 3.85 17.935C4.01333 17.9583 4.17667 17.97 4.34 17.97C4.50333 17.97 4.585 17.97 4.585 17.97L4.795 18.145C4.795 18.1217 4.83 18.145 4.9 18.215H4.935C5.005 18.215 5.075 18.1917 5.145 18.145C5.23833 18.0983 5.30833 18.075 5.355 18.075C5.47167 18.0983 5.58833 18.145 5.705 18.215C5.845 18.285 5.95 18.285 6.02 18.215L6.3 18.32L6.615 18.145C6.66167 18.1917 6.755 18.2383 6.895 18.285C6.94167 18.3083 7.01167 18.32 7.105 18.32C7.315 18.32 7.46667 18.2733 7.56 18.18L7.7 18.355C8.02667 18.3317 8.35333 18.3317 8.68 18.355C9.03 18.355 9.35667 18.355 9.66 18.355C9.91667 18.355 10.1617 18.355 10.395 18.355C10.6517 18.3317 10.8967 18.3083 11.13 18.285C11.2 18.285 11.2583 18.285 11.305 18.285C11.3517 18.2617 11.3867 18.25 11.41 18.25C11.5733 18.25 11.76 18.2033 11.97 18.11C12.18 18.0167 12.355 17.97 12.495 17.97C12.5417 17.97 12.6467 17.935 12.81 17.865C12.9967 17.7717 13.055 17.83 12.985 18.04L12.635 18.215L12.53 18.18C12.5067 18.2033 12.4017 18.2617 12.215 18.355C12.0517 18.425 11.9583 18.4367 11.935 18.39L11.2 18.495C11.1067 18.5183 10.9667 18.5417 10.78 18.565C10.5933 18.5883 10.5 18.5883 10.5 18.565L10.185 18.635C10.185 18.6117 10.1617 18.6 10.115 18.6C10.0217 18.6 9.88167 18.635 9.695 18.705C9.53167 18.775 9.43833 18.7983 9.415 18.775C9.39167 18.7283 9.275 18.7283 9.065 18.775C8.87833 18.7983 8.69167 18.81 8.505 18.81C8.225 18.81 8.07333 18.7633 8.05 18.67L7.77 18.775C7.81667 18.7283 7.79333 18.705 7.7 18.705C7.63 18.6817 7.57167 18.6817 7.525 18.705L7.49 18.88C7.44333 18.9033 7.39667 18.9033 7.35 18.88C7.30333 18.8567 7.25667 18.8333 7.21 18.81C7.07 18.74 6.84833 18.705 6.545 18.705C6.24167 18.705 5.95 18.6933 5.67 18.67C5.39 18.6467 5.215 18.5883 5.145 18.495L4.865 18.635C4.77167 18.635 4.63167 18.6233 4.445 18.6C4.28167 18.5533 4.15333 18.5183 4.06 18.495C3.89667 18.4483 3.71 18.4017 3.5 18.355C3.31333 18.3083 3.12667 18.2967 2.94 18.32L3.115 18.6V18.67C3.27833 18.7633 3.40667 18.915 3.5 19.125C3.61667 19.3117 3.79167 19.3817 4.025 19.335L4.13 19.79L4.41 19.965C4.43333 19.9417 4.45667 19.93 4.48 19.93C4.55 19.93 4.66667 19.9767 4.83 20.07C4.99333 20.1633 5.12167 20.2333 5.215 20.28L5.32 20.21L5.495 20.525C5.51833 20.5017 5.54167 20.49 5.565 20.49C5.635 20.49 5.71667 20.5133 5.81 20.56C5.90333 20.6067 5.96167 20.6183 5.985 20.595L6.23 20.665L6.475 20.595C6.56833 20.735 6.62667 20.84 6.65 20.91C6.67333 20.98 6.70833 21.0267 6.755 21.05C6.87167 21.0967 6.87167 21.1317 6.755 21.155C6.66167 21.1783 6.615 21.2133 6.615 21.26L6.65 21.33H6.965C6.965 21.26 7.04667 21.2017 7.21 21.155C7.39667 21.1317 7.58333 21.12 7.77 21.12C8.05 21.12 8.21333 21.1433 8.26 21.19C8.35333 21.2367 8.37667 21.2367 8.33 21.19L8.645 21.155L8.855 21.33C8.90167 21.26 8.94833 21.225 8.995 21.225C9.065 21.225 9.12333 21.2367 9.17 21.26C9.24 21.3067 9.275 21.33 9.275 21.33C9.32167 21.3533 9.36833 21.3067 9.415 21.19C9.485 21.0967 9.56667 21.0617 9.66 21.085L9.8 21.12C9.96333 21.12 10.1267 21.0967 10.29 21.05C10.4767 21.0033 10.5817 21.05 10.605 21.19L10.85 21.015L11.025 21.05L10.955 21.33C10.955 21.4233 10.9667 21.47 10.99 21.47C11.0367 21.47 11.095 21.3883 11.165 21.225C11.2583 21.085 11.305 21.0733 11.305 21.19L11.55 20.91C11.62 20.9567 11.7133 20.98 11.83 20.98C12.0167 20.98 12.1917 20.91 12.355 20.77C12.5183 20.6533 12.7167 20.5717 12.95 20.525L12.985 20.595C13.0317 20.5717 13.0783 20.5483 13.125 20.525C13.195 20.525 13.23 20.5483 13.23 20.595L13.615 20.56C13.7083 20.49 13.86 20.4083 14.07 20.315C14.3033 20.2217 14.4667 20.1517 14.56 20.105L14.595 19.965C14.595 19.965 14.6533 19.965 14.77 19.965C14.91 19.9417 14.9917 19.9183 15.015 19.895V19.86C15.015 19.8133 15.015 19.7433 15.015 19.65C15.015 19.5333 15.0617 19.4867 15.155 19.51L15.33 19.615C15.54 19.545 15.68 19.4517 15.75 19.335C15.8433 19.195 15.9833 19.0667 16.17 18.95C16.24 18.9033 16.2983 18.845 16.345 18.775C16.415 18.705 16.4967 18.6583 16.59 18.635C16.6133 18.635 16.6483 18.67 16.695 18.74C16.765 18.81 16.835 18.7983 16.905 18.705L16.94 18.355L17.255 18.25L17.43 18.005C17.43 18.005 17.43 18.0167 17.43 18.04C17.4533 18.04 17.4767 18.04 17.5 18.04C17.5933 18.04 17.6983 17.9467 17.815 17.76C17.9317 17.5733 17.955 17.445 17.885 17.375L18.235 16.99C18.2117 16.85 18.2583 16.675 18.375 16.465C18.515 16.255 18.585 15.9983 18.585 15.695C18.585 15.5083 18.5267 15.2867 18.41 15.03C18.2933 14.7733 18.06 14.4933 17.71 14.19L17.535 14.085C17.255 13.8983 16.9983 13.7583 16.765 13.665C16.555 13.5483 16.275 13.4317 15.925 13.315C15.925 13.315 15.89 13.2917 15.82 13.245L14.84 12.965C14.7467 12.895 14.5367 12.8367 14.21 12.79C13.8833 12.7433 13.6617 12.7083 13.545 12.685C13.4983 12.6617 13.44 12.6267 13.37 12.58C13.3233 12.5333 13.2767 12.545 13.23 12.615L12.915 12.44C12.8683 12.4633 12.81 12.475 12.74 12.475C12.6933 12.475 12.6467 12.4633 12.6 12.44C12.5767 12.4167 12.5067 12.405 12.39 12.405C12.2267 12.3817 11.9583 12.3117 11.585 12.195C11.235 12.0783 11.0367 12.0433 10.99 12.09L10.08 11.635L9.975 11.67L9.66 11.495C9.73 11.5883 9.68333 11.6117 9.52 11.565C9.35667 11.495 9.17 11.4133 8.96 11.32C8.75 11.2033 8.58667 11.1333 8.47 11.11C8.07333 10.9467 7.71167 10.7133 7.385 10.41C7.08167 10.1067 6.93 9.73333 6.93 9.29C6.93 8.89333 6.95333 8.61333 7 8.45C7.04667 8.28667 7.105 8.14667 7.175 8.03C7.26833 7.91333 7.35 7.73833 7.42 7.505C7.46667 7.435 7.525 7.365 7.595 7.295C7.68833 7.20167 7.74667 7.10833 7.77 7.015L8.05 6.84C8.07333 6.72333 8.13167 6.60667 8.225 6.49C8.34167 6.37333 8.44667 6.29167 8.54 6.245C8.84333 6.105 9.18167 5.87167 9.555 5.545C9.95167 5.195 10.3367 4.93833 10.71 4.775C10.8033 4.72833 10.885 4.69333 10.955 4.67C11.025 4.62333 11.1067 4.58833 11.2 4.565L11.235 4.635C11.445 4.565 11.795 4.46 12.285 4.32C12.775 4.15667 13.3117 3.99333 13.895 3.83C14.5017 3.66667 15.0617 3.52667 15.575 3.41C16.1117 3.29333 16.5317 3.235 16.835 3.235C17.045 3.235 17.1617 3.27 17.185 3.34L17.605 3.095C17.6283 3.11833 17.675 3.14167 17.745 3.165C17.815 3.165 17.8617 3.15333 17.885 3.13L18.235 3.235C18.3283 3.18833 18.3983 3.165 18.445 3.165C18.585 3.165 18.7367 3.21167 18.9 3.305C19.0867 3.375 19.2267 3.39833 19.32 3.375C19.4367 3.32833 19.5183 3.31667 19.565 3.34C19.635 3.34 19.705 3.34 19.775 3.34H19.915C19.985 3.34 20.055 3.35167 20.125 3.375C20.2183 3.375 20.3117 3.42167 20.405 3.515L20.58 3.55C20.65 3.62 20.685 3.70167 20.685 3.795C20.7317 3.88833 20.8717 3.94667 21.105 3.97C21.3383 3.99333 21.49 4.04 21.56 4.11C21.7467 4.25 21.8517 4.48333 21.875 4.81C21.9217 5.11333 21.945 5.39333 21.945 5.65C21.9217 5.90667 21.8167 6.22167 21.63 6.595C21.4667 6.945 21.2567 7.225 21 7.435C20.8833 7.52833 20.7083 7.63333 20.475 7.75C20.2417 7.84333 20.0667 7.925 19.95 7.995C19.6933 8.15833 19.4133 8.24 19.11 8.24C18.6667 8.24 18.445 8.14667 18.445 7.96C18.445 7.89 18.5267 7.82 18.69 7.75C18.8067 7.70333 18.9117 7.65667 19.005 7.61C19.1217 7.54 19.2267 7.45833 19.32 7.365C19.4133 7.31833 19.4717 7.295 19.495 7.295C19.5417 7.27167 19.5767 7.24833 19.6 7.225C19.6467 7.20167 19.6817 7.17833 19.705 7.155C19.7283 7.10833 19.775 7.06167 19.845 7.015C19.985 6.89833 20.16 6.71167 20.37 6.455C20.6033 6.175 20.7667 5.965 20.86 5.825C20.8833 5.70833 20.93 5.55667 21 5.37C21.0933 5.16 21.14 4.97333 21.14 4.81C21.14 4.67 21.105 4.565 21.035 4.495C21.0117 4.495 21 4.48333 21 4.46L20.965 4.39C20.7783 3.99333 20.405 3.77167 19.845 3.725C19.3083 3.655 18.8533 3.62 18.48 3.62C18.48 3.62 18.4567 3.60833 18.41 3.585C18.3633 3.56167 18.34 3.57333 18.34 3.62L17.57 3.69L17.5 3.62L16.765 3.76L16.695 3.725L15.925 3.935C15.9483 3.88833 15.9367 3.87667 15.89 3.9C15.8433 3.9 15.82 3.9 15.82 3.9L15.05 4.11L15.015 4.075L14.665 4.285C14.665 4.26167 14.6533 4.23833 14.63 4.215C14.6067 4.19167 14.595 4.18 14.595 4.18C14.5717 4.20333 14.5483 4.23833 14.525 4.285C14.5017 4.30833 14.4667 4.33167 14.42 4.355L14.35 4.32L13.86 4.495C13.86 4.51833 13.8133 4.53 13.72 4.53C13.09 4.81 12.4017 5.13667 11.655 5.51C10.9317 5.86 10.3717 6.36167 9.975 7.015L9.905 6.945L9.59 7.225C9.56667 7.24833 9.53167 7.28333 9.485 7.33C9.46167 7.37667 9.42667 7.45833 9.38 7.575C9.31 7.76167 9.205 7.98333 9.065 8.24C8.94833 8.49667 8.89 8.74167 8.89 8.975C8.89 9.20833 8.93667 9.43 9.03 9.64C9.12333 9.82667 9.19333 9.87333 9.24 9.78L9.555 9.99L9.66 10.375L9.73 10.34L10.185 10.69H10.255L10.815 11.145L11.235 11.39H11.515L11.935 11.53C11.9817 11.5533 12.0167 11.5883 12.04 11.635C12.0867 11.6583 12.145 11.635 12.215 11.565L12.565 11.81C12.5883 11.7867 12.6233 11.775 12.67 11.775C12.7167 11.775 12.7633 11.7983 12.81 11.845C12.8567 11.8683 12.8917 11.8917 12.915 11.915L12.985 11.88L14.21 12.37C14.2567 12.3467 14.315 12.335 14.385 12.335C14.5017 12.335 14.595 12.3583 14.665 12.405C14.7583 12.4283 14.8517 12.4517 14.945 12.475C14.9917 12.4983 15.05 12.5333 15.12 12.58C15.2133 12.6267 15.26 12.6617 15.26 12.685C15.3067 12.7083 15.3533 12.72 15.4 12.72C15.47 12.72 15.5283 12.72 15.575 12.72L15.89 12.825L16.205 13L16.52 13.035C16.52 13.035 16.6133 13.0817 16.8 13.175C17.01 13.245 17.22 13.315 17.43 13.385C17.6633 13.455 17.7917 13.5017 17.815 13.525L18.025 13.735L18.06 13.7L18.305 13.84C18.5617 14.0033 18.8183 14.3183 19.075 14.785C19.355 15.2283 19.495 15.7183 19.495 16.255C19.495 16.605 19.4367 16.955 19.32 17.305C19.2267 17.6317 19.11 17.9 18.97 18.11C18.62 18.5767 18.235 18.9967 17.815 19.37C17.4183 19.7433 17.0567 20.0583 16.73 20.315C16.6133 20.385 16.5317 20.4433 16.485 20.49C16.4383 20.5367 16.3683 20.56 16.275 20.56C16.205 20.5833 16.1467 20.6183 16.1 20.665C15.7733 20.8517 15.4117 21.015 15.015 21.155C14.6183 21.3183 14.2683 21.47 13.965 21.61C13.825 21.6567 13.7083 21.68 13.615 21.68C13.5217 21.7033 13.4283 21.7267 13.335 21.75C13.3117 21.75 13.265 21.7617 13.195 21.785C13.1483 21.8317 13.125 21.8433 13.125 21.82L12.88 21.995C12.8567 21.9717 12.8217 21.96 12.775 21.96C12.6817 21.96 12.5767 22.0067 12.46 22.1C12.3667 22.1933 12.2733 22.2283 12.18 22.205H12.145C12.075 22.205 11.9817 22.2167 11.865 22.24C11.7717 22.2867 11.7017 22.2867 11.655 22.24L11.2 22.415L11.13 22.24C11.1067 22.24 11.0717 22.2633 11.025 22.31C11.0017 22.38 10.9667 22.415 10.92 22.415C10.92 22.415 10.8733 22.3917 10.78 22.345C10.6867 22.2983 10.6167 22.3217 10.57 22.415L10.185 22.52C10.1617 22.4267 10.0917 22.38 9.975 22.38C9.88167 22.38 9.8 22.415 9.73 22.485L9.45 22.345V22.38L9.17 22.345L8.89 22.52ZM25.9828 20.105C25.8428 20.105 25.7728 20.0233 25.7728 19.86C25.7728 19.7433 25.8078 19.6033 25.8778 19.44C26.0645 19.0433 26.2745 18.4833 26.5078 17.76C26.7645 17.0367 27.0795 16.4183 27.4528 15.905C27.7095 15.3917 27.9428 14.89 28.1528 14.4C28.3861 13.8867 28.6078 13.3733 28.8178 12.86C28.8178 12.86 28.7945 12.8483 28.7478 12.825C28.7011 12.7783 28.6778 12.7317 28.6778 12.685C28.5611 12.5917 28.4211 12.4633 28.2578 12.3C28.0945 12.1133 28.0828 11.9267 28.2228 11.74C28.2695 11.6933 28.2928 11.67 28.2928 11.67C28.3161 11.67 28.3278 11.67 28.3278 11.67C28.3278 11.6467 28.3161 11.635 28.2928 11.635C28.2928 11.635 28.2928 11.6233 28.2928 11.6L28.2578 11.565C28.2345 11.565 28.2111 11.565 28.1878 11.565C28.1878 11.5417 28.1761 11.53 28.1528 11.53C28.0595 11.53 27.9545 11.5533 27.8378 11.6C27.7211 11.6233 27.6045 11.635 27.4878 11.635C27.3478 11.635 27.1611 11.6933 26.9278 11.81C26.6945 11.9033 26.4845 11.985 26.2978 12.055C26.2045 12.0783 26.1461 12.09 26.1228 12.09C26.1228 12.0667 26.0761 12.0783 25.9828 12.125C25.9595 12.1483 25.9595 12.1133 25.9828 12.02C26.0295 11.9033 26.0528 11.8217 26.0528 11.775C26.0528 11.7517 26.0411 11.74 26.0178 11.74C25.9711 11.74 25.8778 11.81 25.7378 11.95C25.5978 12.0667 25.5045 12.1367 25.4578 12.16C25.4345 12.1833 25.4228 12.2183 25.4228 12.265C25.4461 12.3117 25.4578 12.3583 25.4578 12.405C25.4578 12.475 25.3995 12.5567 25.2828 12.65C25.1661 12.72 25.0845 12.7783 25.0378 12.825C24.9445 12.895 24.8278 12.9417 24.6878 12.965C24.5711 12.965 24.4545 13.0117 24.3378 13.105C24.1978 13.1983 24.1278 13.2683 24.1278 13.315C24.1511 13.3617 24.0811 13.4433 23.9178 13.56C23.7078 13.7233 23.4161 13.9683 23.0428 14.295C22.6928 14.6217 22.4245 14.9133 22.2378 15.17C21.7945 15.7067 21.3861 16.325 21.0128 17.025C20.6628 17.725 20.4878 18.2733 20.4878 18.67C20.4878 18.9733 20.6161 19.125 20.8728 19.125C20.9195 19.125 20.9661 19.125 21.0128 19.125C21.0595 19.1017 21.1178 19.0783 21.1878 19.055L22.0978 18.53L22.3078 18.495V18.46L22.4478 18.565C22.4711 18.5417 22.4595 18.5067 22.4128 18.46C22.3895 18.39 22.3895 18.355 22.4128 18.355C22.4361 18.355 22.4478 18.3667 22.4478 18.39C22.4711 18.39 22.4945 18.39 22.5178 18.39L22.5878 18.285C22.5878 18.285 22.6228 18.2967 22.6928 18.32C22.7861 18.32 22.8561 18.2967 22.9028 18.25C22.9728 18.2267 22.9845 18.1917 22.9378 18.145C22.9145 18.0983 22.8795 18.0633 22.8328 18.04L23.0778 17.83C23.1011 17.7833 23.1945 17.7367 23.3578 17.69C23.7545 17.4333 24.0811 17.13 24.3378 16.78C24.6178 16.4067 24.9328 16.0683 25.2828 15.765H25.3178L25.7378 15.345L25.7028 15.24L26.1578 14.715H26.2278C26.2511 14.6683 26.2978 14.61 26.3678 14.54C26.4611 14.47 26.5195 14.4117 26.5428 14.365C26.5895 14.3417 26.6945 14.225 26.8578 14.015C27.0445 13.7817 27.2195 13.595 27.3828 13.455C27.5695 13.315 27.6745 13.245 27.6978 13.245C27.7211 13.245 27.7328 13.2567 27.7328 13.28C27.7328 13.35 27.6978 13.455 27.6278 13.595C27.5811 13.735 27.5345 13.8283 27.4878 13.875C27.3245 14.1317 27.1145 14.4233 26.8578 14.75C26.6011 15.0533 26.4495 15.24 26.4028 15.31C26.1228 15.6133 25.7845 16.0217 25.3878 16.535C24.9911 17.025 24.5595 17.515 24.0928 18.005C23.6261 18.495 23.1595 18.915 22.6928 19.265C22.2495 19.5917 21.8295 19.755 21.4328 19.755C21.0595 19.755 20.6628 19.6383 20.2428 19.405C19.8228 19.1717 19.6128 18.7283 19.6128 18.075C19.6128 17.865 19.6361 17.6317 19.6828 17.375C19.7528 17.095 19.8578 16.8033 19.9978 16.5C19.9978 16.5 20.0211 16.4767 20.0678 16.43C20.1145 16.36 20.1495 16.3367 20.1728 16.36C20.2195 16.29 20.2311 16.22 20.2078 16.15C20.2078 16.0567 20.2078 15.9983 20.2078 15.975L20.2778 15.905C20.3245 15.6483 20.4995 15.415 20.8028 15.205C21.1061 14.995 21.2695 14.8317 21.2928 14.715C21.3161 14.6917 21.3278 14.6567 21.3278 14.61L21.4678 14.155V14.015H21.6078L21.7128 13.875L21.7478 13.805C21.7011 13.7817 21.7128 13.7467 21.7828 13.7C21.8761 13.63 21.9228 13.595 21.9228 13.595C21.9461 13.5483 21.9695 13.5133 21.9928 13.49C22.0395 13.4667 22.0745 13.4433 22.0978 13.42H22.3428C22.3895 13.35 22.3661 13.315 22.2728 13.315C22.1795 13.315 22.1328 13.315 22.1328 13.315C22.1328 13.2917 22.1328 13.28 22.1328 13.28C22.1561 13.2567 22.1678 13.2333 22.1678 13.21L22.5528 12.895C22.6695 12.8017 22.7861 12.72 22.9028 12.65C23.0195 12.58 23.1245 12.4983 23.2178 12.405C23.2878 12.405 23.2995 12.44 23.2528 12.51C23.2761 12.5567 23.2995 12.5567 23.3228 12.51C23.3695 12.4633 23.3928 12.44 23.3928 12.44L23.5678 12.405V12.37C23.5678 12.3233 23.5795 12.2533 23.6028 12.16C23.6261 12.0667 23.6378 12.0083 23.6378 11.985C24.1278 11.6117 24.6411 11.285 25.1778 11.005C25.7145 10.7017 26.2395 10.55 26.7528 10.55C27.3595 10.55 27.9078 10.7833 28.3978 11.25L28.5728 11.355C28.5961 11.355 28.6078 11.3433 28.6078 11.32C28.6545 10.9933 28.9228 10.7483 29.4128 10.585C29.9261 10.4217 30.3811 10.34 30.7778 10.34C31.1978 10.34 31.4078 10.3983 31.4078 10.515C31.4078 10.5617 31.3378 10.6433 31.1978 10.76C31.1278 10.8067 31.0111 10.9117 30.8478 11.075C30.6845 11.2383 30.5211 11.4367 30.3578 11.67C30.3345 11.74 30.2995 11.81 30.2528 11.88C30.2061 11.95 30.1595 12.02 30.1128 12.09C30.0895 12.1367 30.0545 12.195 30.0078 12.265C29.9845 12.3117 29.9495 12.3583 29.9028 12.405C29.5061 13.0817 29.1911 13.6533 28.9578 14.12C28.7245 14.5867 28.4445 15.1817 28.1178 15.905C28.0711 16.045 28.0478 16.1267 28.0478 16.15C28.0478 16.3367 28.1528 16.43 28.3628 16.43C28.5028 16.43 28.6428 16.395 28.7828 16.325L29.1328 16.185C29.6928 15.6717 30.2761 15.24 30.8828 14.89C30.9061 14.89 30.9178 14.89 30.9178 14.89C30.9411 14.8667 30.9645 14.855 30.9878 14.855C31.0578 14.855 31.1045 14.9017 31.1278 14.995C31.1511 15.065 31.1278 15.1233 31.0578 15.17C30.3811 15.5433 29.7511 16.0217 29.1678 16.605C29.1445 16.6517 29.1211 16.6983 29.0978 16.745C29.0745 16.7917 29.0395 16.8383 28.9928 16.885C28.9228 16.9317 28.8528 17.0133 28.7828 17.13C28.7128 17.2467 28.6778 17.3167 28.6778 17.34C28.6545 17.41 28.6195 17.4333 28.5728 17.41C28.5495 17.3867 28.4795 17.4217 28.3628 17.515C28.3395 17.5383 28.3161 17.585 28.2928 17.655C28.2928 17.725 28.2811 17.7833 28.2578 17.83C28.2111 17.9 28.1645 17.9583 28.1178 18.005C28.0711 18.0283 28.0478 18.0517 28.0478 18.075C28.0245 18.1683 27.9778 18.2267 27.9078 18.25C27.8611 18.25 27.8145 18.2733 27.7678 18.32C27.7445 18.32 27.7328 18.3317 27.7328 18.355C27.7328 18.565 27.7095 18.6583 27.6628 18.635C27.6161 18.6117 27.5695 18.635 27.5228 18.705C27.4761 18.7983 27.4178 18.845 27.3478 18.845C27.2078 18.8917 27.1495 18.9267 27.1728 18.95C27.2195 18.9733 27.2545 18.9967 27.2778 19.02C27.3245 19.02 27.2895 19.055 27.1728 19.125C27.1261 19.1483 27.0795 19.2183 27.0328 19.335C26.9861 19.4283 26.9395 19.4983 26.8928 19.545C26.8228 19.5917 26.7528 19.6267 26.6828 19.65C26.6128 19.6733 26.5545 19.72 26.5078 19.79C26.2978 20 26.1228 20.105 25.9828 20.105ZM29.7237 20.105C29.5837 20.105 29.5137 20.0233 29.5137 19.86C29.5137 19.7433 29.5487 19.6033 29.6187 19.44C29.8053 19.0433 30.027 18.4833 30.2837 17.76C30.5403 17.0367 30.8553 16.4183 31.2287 15.905L32.5937 12.86C32.5937 12.86 32.5703 12.8483 32.5237 12.825C32.477 12.7783 32.4537 12.7317 32.4537 12.685C32.3137 12.5917 32.162 12.4633 31.9987 12.3C31.8587 12.1133 31.847 11.9267 31.9637 11.74C32.0103 11.6933 32.0453 11.67 32.0687 11.67C32.092 11.67 32.1037 11.67 32.1037 11.67V11.6C32.1037 11.5067 32.1387 11.4483 32.2087 11.425C32.302 11.4017 32.3603 11.3667 32.3837 11.32C32.4303 10.9933 32.6987 10.7483 33.1887 10.585C33.702 10.4217 34.157 10.34 34.5537 10.34C34.9503 10.34 35.1487 10.3983 35.1487 10.515C35.1487 10.585 35.0787 10.6667 34.9387 10.76C34.892 10.8067 34.7753 10.9117 34.5887 11.075C34.4253 11.2383 34.2737 11.4367 34.1337 11.67L33.8887 12.09L33.6437 12.405C33.2703 13.0817 32.967 13.6533 32.7337 14.12C32.5003 14.5867 32.2203 15.1817 31.8937 15.905C31.8237 16.045 31.7887 16.1617 31.7887 16.255C31.7887 16.3717 31.8353 16.43 31.9287 16.43C31.9753 16.43 32.022 16.4183 32.0687 16.395C32.1387 16.3483 32.2087 16.3133 32.2787 16.29C32.4653 16.1733 32.617 16.0683 32.7337 15.975C32.8737 15.8583 33.0253 15.7417 33.1887 15.625C33.2587 15.555 33.317 15.555 33.3637 15.625C33.4103 15.6717 33.4103 15.7417 33.3637 15.835C33.2703 16.0217 33.2003 16.1383 33.1537 16.185C33.1303 16.2083 33.0953 16.2317 33.0487 16.255C33.002 16.2783 32.897 16.3833 32.7337 16.57L32.5937 16.85C32.547 16.8967 32.4887 16.99 32.4187 17.13C32.372 17.2467 32.3487 17.3167 32.3487 17.34C32.3487 17.3867 32.3253 17.41 32.2787 17.41C32.232 17.3867 32.162 17.4217 32.0687 17.515C32.0453 17.5383 32.0337 17.585 32.0337 17.655C32.057 17.725 32.0453 17.7833 31.9987 17.83C31.9753 17.9 31.9403 17.9583 31.8937 18.005C31.847 18.0283 31.8237 18.0517 31.8237 18.075C31.8003 18.1683 31.7537 18.2267 31.6837 18.25C31.637 18.25 31.5903 18.2733 31.5437 18.32C31.5203 18.32 31.5087 18.3433 31.5087 18.39C31.5087 18.5767 31.4853 18.6583 31.4387 18.635C31.392 18.6117 31.3453 18.635 31.2987 18.705C31.252 18.7983 31.1937 18.845 31.1237 18.845C30.9837 18.8917 30.9253 18.9267 30.9487 18.95C30.972 18.9733 31.007 18.9967 31.0537 19.02C31.1003 19.02 31.0653 19.055 30.9487 19.125C30.8787 19.1483 30.8203 19.2183 30.7737 19.335C30.727 19.4283 30.6803 19.4983 30.6337 19.545C30.587 19.5917 30.5287 19.6267 30.4587 19.65C30.3887 19.6733 30.3303 19.72 30.2837 19.79C30.0737 20 29.887 20.105 29.7237 20.105ZM40.1537 19.825C40.0603 19.825 39.9787 19.825 39.9087 19.825C39.8387 19.8017 39.7687 19.7783 39.6987 19.755C39.4653 19.7083 39.2553 19.6383 39.0687 19.545C38.9053 19.4517 38.7653 19.2767 38.6487 19.02C38.6253 18.9033 38.567 18.7517 38.4737 18.565C38.4037 18.3783 38.357 18.2033 38.3337 18.04C38.3103 17.9233 38.2987 17.7833 38.2987 17.62C38.2753 17.5033 38.2637 17.3517 38.2637 17.165C38.217 16.9317 38.1937 16.7217 38.1937 16.535C38.217 16.3483 38.2287 16.1267 38.2287 15.87C38.2287 15.6133 38.2403 15.4267 38.2637 15.31C38.3103 15.1 38.3337 14.995 38.3337 14.995C38.3337 14.9717 38.3337 14.855 38.3337 14.645C38.357 14.365 38.3687 14.0733 38.3687 13.77C38.3687 13.4667 38.3803 13.2217 38.4037 13.035C38.4737 12.335 38.3337 11.985 37.9837 11.985C37.8437 11.985 37.657 12.0433 37.4237 12.16C37.4003 12.23 37.3537 12.2767 37.2837 12.3C37.237 12.3 37.167 12.3233 37.0737 12.37L36.8987 12.475C36.8987 12.4983 36.8753 12.51 36.8287 12.51C36.782 12.4867 36.7587 12.4983 36.7587 12.545C36.782 12.6383 36.7703 12.6967 36.7237 12.72C36.7003 12.7433 36.6653 12.7317 36.6187 12.685L36.2337 12.965C36.2337 12.9883 36.1987 13.035 36.1287 13.105L36.0937 13.14C36.0003 13.2333 35.9187 13.28 35.8487 13.28L35.7437 13.385C35.7437 13.4083 35.7203 13.455 35.6737 13.525C35.6503 13.5717 35.592 13.5833 35.4987 13.56L35.3237 13.735C35.2303 13.875 35.1487 13.9567 35.0787 13.98C35.032 14.0033 34.9737 14.0267 34.9037 14.05L34.6237 14.4L34.4837 14.435C34.4837 14.5283 34.3787 14.6683 34.1687 14.855C33.982 15.0417 33.8537 15.17 33.7837 15.24C33.7137 15.31 33.6437 15.345 33.5737 15.345C33.527 15.345 33.5037 15.3217 33.5037 15.275C33.5037 15.2517 33.562 15.1583 33.6787 14.995C33.772 14.9017 33.912 14.7267 34.0987 14.47C34.3087 14.2133 34.4253 14.0967 34.4487 14.12C34.5653 14.0033 34.647 13.8867 34.6937 13.77C34.7403 13.63 34.822 13.5133 34.9387 13.42C34.9387 13.4433 34.9387 13.4667 34.9387 13.49C34.962 13.49 34.9737 13.49 34.9737 13.49C35.0203 13.49 35.0787 13.4317 35.1487 13.315C35.2187 13.175 35.2653 13.1167 35.2887 13.14L35.8837 12.615C35.8837 12.5917 35.942 12.545 36.0587 12.475C36.152 12.4283 36.2103 12.405 36.2337 12.405C36.257 12.405 36.3153 12.335 36.4087 12.195L36.6537 12.02C36.677 11.9733 36.7003 11.985 36.7237 12.055C36.7703 12.1017 36.8053 12.1133 36.8287 12.09L36.9337 11.845C36.9803 11.775 37.0503 11.7167 37.1437 11.67C37.2603 11.6 37.377 11.53 37.4937 11.46C37.7737 11.18 37.9837 11.04 38.1237 11.04H38.2637C38.567 10.9233 38.847 10.865 39.1037 10.865C39.477 10.865 39.7687 11.005 39.9787 11.285C40.0253 11.355 40.072 11.4833 40.1187 11.67C40.1653 11.6933 40.177 11.7283 40.1537 11.775C40.1537 11.7983 40.1653 11.8333 40.1887 11.88C40.212 11.9267 40.2587 11.985 40.3287 12.055C40.3987 12.1017 40.4337 12.16 40.4337 12.23V12.3C40.4337 12.3933 40.3753 12.475 40.2587 12.545C40.3753 12.6383 40.422 12.6967 40.3987 12.72C40.3987 12.72 40.387 12.755 40.3637 12.825L40.2937 13.315C40.2703 13.4783 40.2353 13.6067 40.1887 13.7C40.142 13.77 40.0953 13.8983 40.0487 14.085C40.142 14.225 40.142 14.3183 40.0487 14.365H39.9787L39.9437 14.505C39.9437 14.5517 39.967 14.5983 40.0137 14.645L39.9087 14.855C39.932 14.8317 39.9437 14.8317 39.9437 14.855C39.967 14.855 39.9787 14.855 39.9787 14.855C39.9553 14.9017 39.9203 14.995 39.8737 15.135C39.827 15.2517 39.792 15.345 39.7687 15.415C39.7453 15.5317 39.6987 15.59 39.6287 15.59C39.5587 15.59 39.5353 15.6483 39.5587 15.765C39.582 15.7883 39.5937 15.87 39.5937 16.01C39.617 16.1267 39.6053 16.185 39.5587 16.185L39.4887 16.605V16.71C39.4887 16.8267 39.4653 16.9433 39.4187 17.06C39.3953 17.1767 39.372 17.2933 39.3487 17.41C39.3253 17.5267 39.302 17.655 39.2787 17.795C39.2787 17.9117 39.2787 18.0283 39.2787 18.145C39.2787 18.2383 39.2787 18.3433 39.2787 18.46C39.302 18.5533 39.3253 18.6467 39.3487 18.74C39.3487 18.7633 39.3837 18.8333 39.4537 18.95C39.5237 19.0667 39.5587 19.1367 39.5587 19.16L39.6637 19.265C39.7103 19.2883 39.7803 19.2883 39.8737 19.265C39.9903 19.2417 40.072 19.2533 40.1187 19.3C40.3287 19.3233 40.597 19.2183 40.9237 18.985C41.2737 18.7283 41.5887 18.4483 41.8687 18.145C41.9387 18.075 42.0087 18.04 42.0787 18.04C42.1253 18.04 42.1603 18.075 42.1837 18.145C42.207 18.215 42.1837 18.3083 42.1137 18.425C41.7403 18.9617 41.3903 19.335 41.0637 19.545C40.737 19.7317 40.4337 19.825 40.1537 19.825ZM46.4003 22.205C46.3303 22.0883 46.2953 21.9367 46.2953 21.75C46.2953 21.6567 46.3186 21.54 46.3653 21.4C46.3886 21.33 46.4353 21.1317 46.5053 20.805C46.5986 20.5017 46.692 20.1983 46.7853 19.895C46.8786 19.5683 46.937 19.3817 46.9603 19.335C46.9836 19.335 47.0536 19.16 47.1703 18.81C47.3103 18.4367 47.462 18.04 47.6253 17.62C47.7886 17.2 47.917 16.9317 48.0103 16.815C48.1036 16.5583 48.2553 16.2433 48.4653 15.87C48.6986 15.4733 48.9086 15.0067 49.0953 14.47L49.0253 14.54C48.7453 14.82 48.3836 15.2517 47.9403 15.835C47.5203 16.395 47.0536 16.9783 46.5403 17.585C46.027 18.1683 45.502 18.6817 44.9653 19.125C44.452 19.545 43.962 19.755 43.4953 19.755C43.122 19.755 42.6903 19.6267 42.2003 19.37C41.7103 19.09 41.4653 18.6 41.4653 17.9C41.4653 17.5033 41.5703 17.0483 41.7803 16.535C41.7803 16.4883 41.792 16.43 41.8153 16.36C41.862 16.29 41.9086 16.2433 41.9553 16.22C42.002 16.1967 42.0486 16.2083 42.0953 16.255C42.142 16.2783 42.177 16.2667 42.2003 16.22C42.2236 16.22 42.2703 16.2083 42.3403 16.185C42.4103 16.1383 42.4336 16.1033 42.4103 16.08C42.387 16.0567 42.3286 16.045 42.2353 16.045C42.142 16.0217 42.0953 15.9983 42.0953 15.975C42.072 15.9283 42.072 15.8933 42.0953 15.87C42.1186 15.8233 42.1303 15.7767 42.1303 15.73C42.1303 15.66 42.1536 15.6133 42.2003 15.59C42.2703 15.5433 42.317 15.4967 42.3403 15.45C42.3403 15.3333 42.4103 15.2517 42.5503 15.205C42.5736 15.1817 42.6086 15.17 42.6553 15.17C42.7486 15.17 42.772 15.1467 42.7253 15.1C42.6786 15.03 42.6553 14.96 42.6553 14.89C42.6786 14.8433 42.7136 14.7967 42.7603 14.75C42.8303 14.68 42.877 14.6333 42.9003 14.61C42.947 14.5633 43.0053 14.4817 43.0753 14.365C43.1686 14.225 43.2386 14.1433 43.2853 14.12C43.332 14.12 43.3553 14.1433 43.3553 14.19C43.3786 14.2133 43.402 14.2133 43.4253 14.19C43.472 14.1433 43.4836 14.085 43.4603 14.015C43.437 13.945 43.4486 13.8867 43.4953 13.84C43.542 13.7933 43.612 13.7117 43.7053 13.595C43.7986 13.4783 43.8686 13.4083 43.9153 13.385C43.962 13.3383 43.9853 13.3383 43.9853 13.385C43.9853 13.4083 43.997 13.42 44.0203 13.42C44.067 13.42 44.102 13.3733 44.1253 13.28C44.1486 13.1633 44.172 13.0933 44.1953 13.07C44.242 13.0467 44.3003 13.0467 44.3703 13.07C44.4636 13.07 44.522 13.0583 44.5453 13.035C44.592 13.0117 44.592 12.9767 44.5453 12.93C44.522 12.86 44.522 12.8017 44.5453 12.755C44.5453 12.7083 44.5686 12.6733 44.6153 12.65C44.662 12.6267 44.697 12.6033 44.7203 12.58C44.977 12.3467 45.2336 12.125 45.4903 11.915C45.7703 11.705 46.0503 11.5183 46.3303 11.355C46.377 11.3317 46.4236 11.3083 46.4703 11.285C46.5403 11.2617 46.5986 11.25 46.6453 11.25C46.692 11.25 46.727 11.2617 46.7503 11.285C46.7736 11.3083 46.797 11.32 46.8203 11.32C46.867 11.2733 46.8786 11.2383 46.8553 11.215C46.8553 11.1683 46.867 11.1217 46.8903 11.075C46.9136 11.0283 46.9603 10.9933 47.0303 10.97C47.1003 10.9467 47.147 10.9233 47.1703 10.9C47.4503 10.7833 47.7303 10.69 48.0103 10.62C48.2903 10.5267 48.5586 10.48 48.8153 10.48C49.212 10.48 49.597 10.5733 49.9703 10.76C50.1103 10.76 50.2736 10.7833 50.4603 10.83L50.6703 10.48C50.717 10.3867 50.7986 10.34 50.9153 10.34H51.0203C51.0903 10.34 51.1253 10.305 51.1253 10.235C51.1253 10.165 51.0903 10.0133 51.0203 9.78C51.0203 9.59333 51.102 9.48833 51.2653 9.465L51.3353 9.43C51.4286 8.94 51.557 8.61333 51.7203 8.45L51.9653 8.17C52.222 7.86667 52.4203 7.54 52.5603 7.19C52.607 7.09667 52.6653 7.015 52.7353 6.945C52.8286 6.875 52.8986 6.79333 52.9453 6.7C52.992 6.63 53.0036 6.56 52.9803 6.49C52.957 6.39667 52.957 6.32667 52.9803 6.28C53.377 5.65 53.8203 5.09 54.3103 4.6C54.357 4.48333 54.4153 4.36667 54.4853 4.25C54.5786 4.13333 54.672 4.01667 54.7653 3.9C54.882 3.73667 55.022 3.62 55.1853 3.55C55.3486 3.48 55.512 3.36333 55.6753 3.2C55.722 3.15333 55.7336 3.08333 55.7103 2.99C55.7103 2.87333 55.7336 2.79167 55.7803 2.745C56.527 2.06833 57.367 1.50833 58.3003 1.065C59.2336 0.598332 59.9686 0.364998 60.5053 0.364998C60.692 0.364998 60.867 0.388332 61.0303 0.434999C61.1936 0.458332 61.3686 0.469999 61.5553 0.469999H61.6253C61.742 0.469999 61.847 0.504999 61.9403 0.575C62.057 0.621666 62.1736 0.656665 62.2903 0.679998C62.3836 0.679998 62.5003 0.703332 62.6403 0.75C62.757 0.796666 62.827 0.866665 62.8503 0.959999C62.8736 1.05333 62.862 1.12333 62.8153 1.17C62.792 1.19333 62.757 1.19333 62.7103 1.17C62.6636 1.14667 62.6053 1.135 62.5353 1.135C62.4886 1.11167 62.442 1.08833 62.3953 1.065C62.3486 1.01833 62.302 0.983332 62.2553 0.959999C62.162 0.959999 62.057 0.983332 61.9403 1.03C61.847 1.05333 61.7536 1.05333 61.6603 1.03C61.427 1.03 61.2753 1.00667 61.2053 0.959999C61.1353 0.913333 61.007 0.913333 60.8203 0.959999C60.797 0.959999 60.727 0.971665 60.6103 0.994999C60.4936 1.01833 60.412 1.03 60.3653 1.03C59.5486 1.24 58.837 1.59 58.2303 2.08C57.647 2.57 57.122 3.11833 56.6553 3.725C56.212 4.30833 55.7803 4.88 55.3603 5.44C55.267 5.62667 55.1736 5.81333 55.0803 6C54.987 6.18667 54.8936 6.33833 54.8003 6.455C54.777 6.47833 54.7536 6.46667 54.7303 6.42C54.707 6.37333 54.6836 6.37333 54.6603 6.42C54.5903 6.49 54.5436 6.60667 54.5203 6.77C54.497 6.93333 54.4503 7.06167 54.3803 7.155C54.357 7.17833 54.322 7.16667 54.2753 7.12C54.252 7.05 54.2286 7.03833 54.2053 7.085C54.182 7.13167 54.1586 7.225 54.1353 7.365C54.112 7.505 54.077 7.59833 54.0303 7.645C53.7736 8.04167 53.482 8.415 53.1553 8.765C52.852 9.115 52.5603 9.535 52.2803 10.025C51.837 10.7483 51.3236 11.6233 50.7403 12.65C50.157 13.6533 49.6553 14.575 49.2353 15.415C49.072 15.7183 48.9553 15.9867 48.8853 16.22C48.8153 16.43 48.7453 16.6283 48.6753 16.815C48.6286 16.955 48.6053 17.0367 48.6053 17.06C48.6053 17.2467 48.7103 17.34 48.9203 17.34C48.9903 17.34 49.0603 17.3283 49.1303 17.305C49.2003 17.2583 49.2703 17.2233 49.3403 17.2C49.4103 17.1533 49.492 17.1183 49.5853 17.095C49.6786 17.0717 49.7603 17.0367 49.8303 16.99C49.8536 16.9667 49.9936 16.885 50.2503 16.745C50.507 16.5817 50.752 16.3833 50.9853 16.15C51.032 16.1267 51.0903 16.08 51.1603 16.01C51.2303 15.94 51.277 15.8933 51.3003 15.87L51.6853 15.555C51.732 15.485 51.7903 15.45 51.8603 15.45C51.9536 15.45 52.0236 15.4967 52.0703 15.59C52.117 15.6833 52.1053 15.7767 52.0353 15.87C52.012 15.9167 51.942 15.975 51.8253 16.045C51.7086 16.0917 51.592 16.1733 51.4753 16.29C51.2886 16.4533 51.067 16.6283 50.8103 16.815C50.577 17.0017 50.3553 17.165 50.1453 17.305C50.052 17.3517 49.947 17.4217 49.8303 17.515C49.7136 17.585 49.632 17.6667 49.5853 17.76L49.2703 18.25C49.2703 18.2967 49.247 18.32 49.2003 18.32C49.177 18.2967 49.107 18.3317 48.9903 18.425C48.967 18.4483 48.9553 18.495 48.9553 18.565C48.9553 18.635 48.932 18.6933 48.8853 18.74C48.862 18.81 48.827 18.8683 48.7803 18.915C48.7336 18.9383 48.7103 18.9617 48.7103 18.985C48.7103 19.055 48.6753 19.1017 48.6053 19.125C48.5353 19.1483 48.477 19.1833 48.4303 19.23C48.407 19.2533 48.407 19.2883 48.4303 19.335C48.4536 19.3817 48.4536 19.4283 48.4303 19.475L48.1153 20.21C48.092 20.2567 48.057 20.3033 48.0103 20.35C47.987 20.3967 47.952 20.4317 47.9053 20.455C47.882 20.4783 47.847 20.4667 47.8003 20.42C47.7536 20.3967 47.7186 20.4083 47.6953 20.455C47.6953 20.5017 47.707 20.5717 47.7303 20.665C47.777 20.7583 47.7653 20.8283 47.6953 20.875C47.6253 20.9217 47.567 21.015 47.5203 21.155C47.4736 21.3183 47.427 21.435 47.3803 21.505C47.3103 21.5983 47.2286 21.6567 47.1353 21.68C47.0653 21.7033 46.9953 21.7733 46.9253 21.89C46.902 21.9133 46.8203 22.0067 46.6803 22.17C46.5636 22.3567 46.4703 22.3683 46.4003 22.205ZM42.9353 19.125C43.0053 19.125 43.1103 19.1017 43.2503 19.055C43.9036 18.705 44.4753 18.3433 44.9653 17.97C44.9653 17.9467 45.0353 17.9117 45.1753 17.865C45.3153 17.8183 45.3736 17.7833 45.3503 17.76L45.5253 17.725C45.5253 17.725 45.5603 17.7367 45.6303 17.76C45.7003 17.7833 45.712 17.7483 45.6653 17.655C45.782 17.5383 45.8053 17.4683 45.7353 17.445C45.6653 17.4217 45.642 17.41 45.6653 17.41C45.7353 17.2933 45.7936 17.235 45.8403 17.235C45.887 17.235 45.957 17.1883 46.0503 17.095C46.1203 17.0483 46.1903 17.0017 46.2603 16.955C46.3303 16.885 46.3886 16.8267 46.4353 16.78C46.4353 16.7567 46.4353 16.745 46.4353 16.745C46.4586 16.7217 46.4703 16.6983 46.4703 16.675C46.4703 16.675 46.5053 16.675 46.5753 16.675C46.6686 16.6517 46.727 16.605 46.7503 16.535C46.9603 16.4883 46.9953 16.465 46.8553 16.465C46.7153 16.4417 46.6453 16.4183 46.6453 16.395C46.6453 16.395 46.692 16.36 46.7853 16.29C46.8786 16.22 46.902 16.1733 46.8553 16.15V16.115L46.9603 15.975L47.1003 15.94L47.1353 15.835C47.1353 15.765 47.217 15.695 47.3803 15.625C47.567 15.5317 47.672 15.45 47.6953 15.38C48.0453 14.9133 48.337 14.505 48.5703 14.155C48.827 13.7817 49.002 13.4783 49.0953 13.245C49.142 13.1517 49.1886 13.07 49.2353 13C49.282 12.93 49.3286 12.86 49.3753 12.79C49.422 12.6033 49.4686 12.4283 49.5153 12.265C49.562 12.0783 49.6203 11.88 49.6903 11.67C49.597 11.6467 49.4453 11.635 49.2353 11.635C48.8853 11.635 48.477 11.705 48.0103 11.845C47.567 11.985 47.077 12.2533 46.5403 12.65C46.447 12.72 46.3303 12.825 46.1903 12.965C46.0736 13.105 45.9686 13.1633 45.8753 13.14H45.8053C45.7353 13.14 45.7003 13.1867 45.7003 13.28C45.7236 13.35 45.6886 13.4317 45.5953 13.525C45.5486 13.5717 45.4903 13.6183 45.4203 13.665C45.3503 13.6883 45.2686 13.7467 45.1753 13.84C45.1286 13.8867 45.0936 13.945 45.0703 14.015C45.047 14.0617 45.0003 14.12 44.9303 14.19C44.837 14.3067 44.7203 14.435 44.5803 14.575C44.4636 14.6917 44.3586 14.7967 44.2653 14.89C44.172 14.9833 44.0553 15.1 43.9153 15.24C43.7986 15.38 43.7053 15.52 43.6353 15.66C43.612 15.6833 43.577 15.66 43.5303 15.59C43.4836 15.52 43.4486 15.4967 43.4253 15.52V15.555C43.4253 15.6017 43.4486 15.6717 43.4953 15.765C43.542 15.835 43.542 15.8933 43.4953 15.94C43.472 15.9867 43.4253 16.08 43.3553 16.22C43.3086 16.36 43.262 16.465 43.2153 16.535C43.0286 16.9083 42.8653 17.2817 42.7253 17.655C42.6086 18.0283 42.5503 18.3433 42.5503 18.6C42.5503 18.95 42.6786 19.125 42.9353 19.125ZM52.4318 19.93C52.1984 19.93 51.9534 19.8833 51.6968 19.79C51.4401 19.6733 51.3468 19.545 51.4168 19.405C51.5101 19.2183 51.6151 19.0317 51.7318 18.845C51.8718 18.635 52.0001 18.4133 52.1168 18.18L52.5018 17.445C52.5484 17.3283 52.5951 17.2467 52.6418 17.2C52.7118 17.13 52.7701 17.0483 52.8168 16.955C52.8401 16.9317 52.8518 16.8733 52.8518 16.78C52.8518 16.6633 52.8984 16.535 52.9918 16.395C53.1084 16.2317 53.1901 16.08 53.2368 15.94C53.2601 15.9167 53.2834 15.9867 53.3068 16.15C53.3301 16.3133 53.3884 16.3017 53.4818 16.115C53.5051 16.0917 53.4934 16.0567 53.4468 16.01C53.4234 15.9633 53.4118 15.9167 53.4118 15.87C53.4118 15.8233 53.4234 15.8 53.4468 15.8C53.4934 15.7767 53.5168 15.7533 53.5168 15.73C53.5401 15.66 53.5168 15.6367 53.4468 15.66C53.4001 15.66 53.3768 15.6483 53.3768 15.625C53.4234 15.555 53.4701 15.5083 53.5168 15.485C53.5868 15.4617 53.6334 15.4267 53.6568 15.38C53.6568 15.3333 53.6334 15.31 53.5868 15.31C53.5634 15.2867 53.5634 15.2633 53.5868 15.24C53.7034 14.9133 53.8318 14.5283 53.9718 14.085C54.1118 13.6417 54.2168 13.2333 54.2868 12.86C54.2868 12.86 54.2634 12.8483 54.2168 12.825C54.1701 12.7783 54.1468 12.7317 54.1468 12.685L53.9018 12.51C53.6218 12.7667 53.3184 12.9883 52.9918 13.175C52.9684 13.1983 52.9218 13.21 52.8518 13.21C52.7584 13.21 52.7001 13.1633 52.6768 13.07C52.6534 12.9767 52.6884 12.895 52.7818 12.825C52.8984 12.755 52.9918 12.7083 53.0618 12.685C53.1318 12.6383 53.2134 12.5683 53.3068 12.475C53.3534 12.4283 53.3768 12.3817 53.3768 12.335C53.4001 12.2883 53.4234 12.2417 53.4468 12.195L53.5868 12.02C53.5868 11.9033 53.6101 11.81 53.6568 11.74C53.7034 11.6933 53.7384 11.67 53.7618 11.67C53.7851 11.67 53.7968 11.67 53.7968 11.67V11.6C53.7968 11.5067 53.8318 11.4483 53.9018 11.425C53.9951 11.4017 54.0418 11.3667 54.0418 11.32C54.0884 10.9933 54.3684 10.7483 54.8818 10.585C55.3951 10.4217 55.8501 10.34 56.2468 10.34C56.6434 10.34 56.8418 10.3983 56.8418 10.515C56.8418 10.585 56.7718 10.6667 56.6318 10.76C56.5618 10.8067 56.4451 10.9117 56.2818 11.075C56.1184 11.2383 55.9668 11.4367 55.8268 11.67L55.5818 12.09L55.3368 12.405C55.1734 12.7783 54.9401 13.35 54.6368 14.12C54.3334 14.89 54.0184 15.8583 53.6918 17.025C53.7618 16.9317 53.9251 16.7333 54.1818 16.43C54.4384 16.1267 54.7418 15.7767 55.0918 15.38C55.4418 14.9833 55.7801 14.61 56.1068 14.26C56.4334 13.8867 56.7018 13.595 56.9118 13.385L57.0868 13.28C57.1334 13.2333 57.1801 13.175 57.2268 13.105C57.2968 13.0117 57.3551 12.9417 57.4018 12.895C57.4251 12.8717 57.4368 12.9183 57.4368 13.035C57.4601 13.1283 57.4834 13.1633 57.5068 13.14C57.6001 13.07 57.6468 12.965 57.6468 12.825C57.6701 12.685 57.7284 12.5917 57.8218 12.545C58.0784 12.335 58.4284 12.0433 58.8718 11.67C59.3384 11.2733 59.8168 11.04 60.3068 10.97C60.3534 10.9233 60.4234 10.9117 60.5168 10.935C60.6334 10.935 60.7151 10.9233 60.7618 10.9C60.8084 10.9 60.8434 10.8883 60.8668 10.865C60.8901 10.8417 60.9484 10.83 61.0418 10.83C61.0884 10.83 61.1818 10.865 61.3218 10.935C61.4851 11.005 61.5784 11.0983 61.6018 11.215C61.7418 11.3083 61.8118 11.4483 61.8118 11.635C61.8118 11.9617 61.6368 12.2067 61.2868 12.37C61.1701 12.4867 61.0418 12.6033 60.9018 12.72C60.7618 12.8133 60.6218 12.9183 60.4818 13.035C60.4351 13.0817 60.4001 13.105 60.3768 13.105C60.2134 13.245 60.0734 13.3967 59.9568 13.56C59.8401 13.7233 59.7818 13.9333 59.7818 14.19C59.7818 14.2133 59.8051 14.2483 59.8518 14.295C59.8984 14.3183 59.9101 14.3417 59.8868 14.365C59.9568 14.435 60.0618 14.4817 60.2018 14.505C60.3418 14.505 60.4818 14.505 60.6218 14.505C60.8551 14.505 61.2051 14.4117 61.6718 14.225H61.7418C61.7651 14.225 61.7768 14.2367 61.7768 14.26C61.7768 14.3067 61.7301 14.3883 61.6368 14.505C61.5434 14.5983 61.4384 14.6683 61.3218 14.715C61.0651 14.8083 60.7968 14.8667 60.5168 14.89C60.2368 14.89 60.0384 14.89 59.9218 14.89C59.5018 14.89 59.2334 14.8083 59.1168 14.645C59.0234 14.4817 58.9301 14.2833 58.8368 14.05V13.875L59.0118 13.7C58.9884 13.63 58.9534 13.56 58.9068 13.49C58.8601 13.42 58.8368 13.3383 58.8368 13.245C58.8368 13.0117 58.9301 12.7433 59.1168 12.44C58.8601 12.51 58.5334 12.7083 58.1368 13.035C57.7634 13.3383 57.3784 13.7 56.9818 14.12C56.5851 14.5167 56.2234 14.9133 55.8968 15.31C55.5701 15.6833 55.3134 15.9867 55.1268 16.22C55.0568 16.3133 54.9751 16.3717 54.8818 16.395C54.8118 16.395 54.7534 16.43 54.7068 16.5C54.6834 16.5233 54.7068 16.535 54.7768 16.535C54.8701 16.535 54.9051 16.5467 54.8818 16.57C54.5784 17.0367 54.2518 17.55 53.9018 18.11C53.5751 18.67 53.2484 19.2183 52.9218 19.755C52.8518 19.8717 52.6884 19.93 52.4318 19.93ZM62.4882 20.315C61.9749 20.315 61.5199 20.175 61.1232 19.895C60.7499 19.5917 60.5632 19.0783 60.5632 18.355C60.5632 18.0983 60.6099 17.7367 60.7032 17.27C60.7965 16.8033 60.9482 16.3133 61.1582 15.8C61.2749 15.52 61.4032 15.2517 61.5432 14.995C61.7065 14.7383 61.8582 14.4933 61.9982 14.26C62.0215 14.2367 62.0915 14.26 62.2082 14.33C62.3482 14.4 62.4299 14.4233 62.4532 14.4C62.4765 14.3533 62.4415 14.3067 62.3482 14.26C62.2782 14.19 62.2549 14.1433 62.2782 14.12C62.3249 14.0733 62.3599 14.05 62.3832 14.05C62.4299 14.0267 62.4649 13.9917 62.4882 13.945C62.5115 13.8983 62.5232 13.8517 62.5232 13.805C62.5232 13.735 62.4882 13.6767 62.4182 13.63C62.3715 13.5833 62.3949 13.5133 62.4882 13.42C62.6049 13.2567 62.7332 13.105 62.8732 12.965C63.0365 12.8017 63.1765 12.6617 63.2932 12.545C63.3399 12.4983 63.3982 12.4283 63.4682 12.335C63.5382 12.2183 63.5849 12.1483 63.6082 12.125L63.6782 12.055C63.7015 12.0317 63.7249 12.0083 63.7482 11.985C63.7482 11.9617 63.7482 11.95 63.7482 11.95C63.7715 11.95 63.7832 11.9383 63.7832 11.915C63.7832 11.845 63.7132 11.775 63.5732 11.705C63.4332 11.635 63.3632 11.5883 63.3632 11.565C63.3632 11.5417 63.3515 11.5183 63.3282 11.495C63.3049 11.4717 63.2815 11.4367 63.2582 11.39C63.2815 11.39 63.3049 11.3667 63.3282 11.32C63.3749 11.25 63.4099 11.215 63.4332 11.215C63.4565 11.215 63.5032 11.2383 63.5732 11.285C63.6432 11.3083 63.6899 11.32 63.7132 11.32C63.7365 11.32 63.7482 11.3083 63.7482 11.285C63.7715 11.2617 63.7949 11.25 63.8182 11.25C63.8649 11.25 63.9699 11.285 64.1332 11.355C64.2965 11.4017 64.3899 11.425 64.4132 11.425C64.4365 11.425 64.5065 11.3667 64.6232 11.25C64.7399 11.1333 64.8099 11.0633 64.8332 11.04C64.8799 10.9933 64.9149 10.9467 64.9382 10.9C64.9615 10.83 65.0199 10.7483 65.1132 10.655H65.1482C65.1715 10.6317 65.1832 10.6083 65.1832 10.585C65.1832 10.5617 65.1832 10.55 65.1832 10.55C65.2299 10.5033 65.2649 10.4683 65.2882 10.445C65.3349 10.3983 65.3699 10.3633 65.3932 10.34C65.4165 10.3167 65.4282 10.305 65.4282 10.305C65.4515 10.305 65.4632 10.305 65.4632 10.305C65.4865 10.2583 65.5099 10.2233 65.5332 10.2C65.5799 10.1767 65.6149 10.1533 65.6382 10.13L65.7082 9.99C65.7549 9.94333 65.9182 9.83833 66.1982 9.675C66.4782 9.51167 66.6882 9.43 66.8282 9.43H67.0032C67.0032 9.43 67.0032 9.44167 67.0032 9.465C67.0032 9.465 67.0149 9.465 67.0382 9.465C67.0615 9.465 67.0849 9.465 67.1082 9.465C67.1315 9.44167 67.1549 9.43 67.1782 9.43C67.1782 9.43 67.2132 9.465 67.2832 9.535C67.3065 9.55833 67.3299 9.57 67.3532 9.57C67.3765 9.54667 67.3999 9.535 67.4232 9.535C67.4465 9.55833 67.4582 9.58167 67.4582 9.605C67.4582 9.62833 67.4699 9.64 67.4932 9.64C67.5399 9.64 67.5515 9.64 67.5282 9.64C67.5282 9.61667 67.5399 9.605 67.5632 9.605C67.5865 9.605 67.5982 9.62833 67.5982 9.675C67.5982 9.72167 67.6099 9.76833 67.6332 9.815C67.6099 9.885 67.5865 9.96667 67.5632 10.06C67.5632 10.13 67.5515 10.1883 67.5282 10.235C67.3182 10.515 67.1549 10.655 67.0382 10.655C67.0382 10.6783 67.0032 10.725 66.9332 10.795C66.8632 10.795 66.7815 10.8183 66.6882 10.865C66.5949 10.9117 66.5015 10.9583 66.4082 11.005V11.11C66.4082 11.2033 66.3732 11.25 66.3032 11.25C66.2565 11.2267 66.2099 11.2617 66.1632 11.355V11.39C66.2099 11.46 66.2915 11.495 66.4082 11.495L66.6532 11.53C66.6999 11.53 66.7232 11.5183 66.7232 11.495C66.7465 11.4717 66.7699 11.46 66.7932 11.46C66.8165 11.46 66.8282 11.4717 66.8282 11.495C66.8282 11.495 66.8399 11.495 66.8632 11.495C66.9099 11.495 66.9449 11.4833 66.9682 11.46C66.9915 11.4367 67.0149 11.425 67.0382 11.425L67.3532 11.46C67.2832 11.3433 67.2482 11.25 67.2482 11.18C67.2482 11.0633 67.3532 10.9933 67.5632 10.97C67.8899 10.97 68.1699 11.0867 68.4032 11.32C68.4499 11.2967 68.5082 11.2967 68.5782 11.32C68.6482 11.3433 68.7182 11.3433 68.7882 11.32L68.9632 11.215L68.9982 11.25C69.0915 11.2033 69.1499 11.18 69.1732 11.18C69.2199 11.18 69.2315 11.1917 69.2082 11.215C69.2082 11.215 69.2199 11.215 69.2432 11.215C69.2432 11.215 69.2665 11.1917 69.3132 11.145C69.3365 11.145 69.3599 11.1567 69.3832 11.18C69.4299 11.18 69.4649 11.1683 69.4882 11.145L69.5932 11.04H70.0132L70.0482 11.005C70.0949 10.9817 70.1532 10.9583 70.2232 10.935C70.3165 10.8883 70.3982 10.865 70.4682 10.865C70.4682 10.8417 70.4915 10.83 70.5382 10.83C70.5849 10.8067 70.6199 10.795 70.6432 10.795H70.7132C70.8299 10.795 70.8882 10.83 70.8882 10.9C70.8882 10.97 70.8532 11.0283 70.7832 11.075C70.7599 11.0983 70.7249 11.11 70.6782 11.11C70.6315 11.0867 70.5849 11.0867 70.5382 11.11C70.4449 11.2033 70.3749 11.25 70.3282 11.25C70.3049 11.25 70.2932 11.25 70.2932 11.25C70.2932 11.2267 70.2815 11.215 70.2582 11.215C70.2349 11.215 70.1882 11.25 70.1182 11.32L69.8732 11.355H69.8382C69.7915 11.355 69.7682 11.3783 69.7682 11.425C69.6749 11.425 69.5815 11.4367 69.4882 11.46C69.3949 11.46 69.3015 11.4717 69.2082 11.495L69.1732 11.53C69.1499 11.53 69.1265 11.5417 69.1032 11.565C69.0799 11.565 69.0449 11.565 68.9982 11.565C68.9515 11.5883 68.8232 11.6 68.6132 11.6C68.7532 11.7867 68.8465 11.9617 68.8932 12.125C68.9399 12.2417 68.9749 12.4283 68.9982 12.685C69.0449 12.9183 69.0565 13.0933 69.0332 13.21C69.0332 13.28 69.0099 13.3033 68.9632 13.28C68.9165 13.2333 68.8932 13.2333 68.8932 13.28C68.8932 13.35 68.9165 13.3967 68.9632 13.42C69.0332 13.42 69.0682 13.4783 69.0682 13.595C69.0682 13.665 69.0565 13.7583 69.0332 13.875C69.0099 13.9683 68.9865 14.0733 68.9632 14.19C68.9399 14.33 68.9049 14.4817 68.8582 14.645C68.8349 14.785 68.7765 14.925 68.6832 15.065L68.5782 15.24V15.45C68.5782 15.6367 68.5199 15.765 68.4032 15.835C68.3099 15.905 68.2399 15.9867 68.1932 16.08C68.1465 16.22 68.1115 16.3133 68.0882 16.36C68.0882 16.4067 68.0415 16.5 67.9482 16.64C67.6449 17.1067 67.2832 17.55 66.8632 17.97C66.4432 18.39 66.0349 18.775 65.6382 19.125C65.2882 19.4283 64.8099 19.7083 64.2032 19.965C63.6199 20.1983 63.0482 20.315 62.4882 20.315ZM62.8382 19.685C62.9082 19.685 63.0482 19.6733 63.2582 19.65C63.4682 19.6033 63.6899 19.4983 63.9232 19.335C63.9699 19.3117 64.0165 19.3233 64.0632 19.37C64.1099 19.4167 64.1565 19.4283 64.2032 19.405C64.3199 19.3583 64.3665 19.3233 64.3432 19.3C64.3199 19.2767 64.3549 19.2533 64.4482 19.23H64.4832C64.6232 19.23 64.6815 19.2183 64.6582 19.195C64.6582 19.1483 64.6699 19.09 64.6932 19.02C64.6932 18.95 64.7282 18.8917 64.7982 18.845C64.8682 18.7983 64.9265 18.7633 64.9732 18.74C65.2299 18.53 65.5449 18.18 65.9182 17.69C66.2915 17.1767 66.6649 16.6633 67.0382 16.15C67.0615 16.1033 67.0965 16.0917 67.1432 16.115C67.1899 16.1383 67.2249 16.1383 67.2482 16.115C67.2715 16.0917 67.2832 16.0217 67.2832 15.905C67.2832 15.835 67.3182 15.73 67.3882 15.59C67.4582 15.4267 67.5282 15.2983 67.5982 15.205C67.6215 15.135 67.6682 15.0067 67.7382 14.82C67.8082 14.61 67.8665 14.4233 67.9132 14.26C67.9832 14.0733 67.9949 13.98 67.9482 13.98C67.9015 13.9567 67.8782 13.9333 67.8782 13.91C67.8782 13.8633 67.9482 13.8167 68.0882 13.77C68.2282 13.7233 68.2165 13.6883 68.0532 13.665C68.0065 13.6417 68.0182 13.595 68.0882 13.525C68.1582 13.455 68.1232 13.4083 67.9832 13.385C67.8665 13.3617 67.8199 13.3267 67.8432 13.28C67.8899 13.2333 67.9249 13.1983 67.9482 13.175C68.0182 13.105 68.0532 13.035 68.0532 12.965C68.0532 12.755 67.9949 12.545 67.8782 12.335C67.7849 12.125 67.6799 11.9383 67.5632 11.775C67.4232 11.8683 67.3532 11.915 67.3532 11.915C67.3299 11.915 67.3182 11.915 67.3182 11.915C67.3182 11.8917 67.2949 11.88 67.2482 11.88C67.2249 11.88 67.2132 11.88 67.2132 11.88C67.2132 11.8567 67.2015 11.845 67.1782 11.845C67.1549 11.845 67.1315 11.8567 67.1082 11.88C67.0849 11.9033 67.0732 11.915 67.0732 11.915C67.0499 11.9383 67.0032 11.95 66.9332 11.95C66.8865 11.95 66.8515 11.95 66.8282 11.95C66.8049 11.95 66.7815 11.9383 66.7582 11.915C66.7582 11.8917 66.7465 11.88 66.7232 11.88C66.6999 11.88 66.6649 11.9033 66.6182 11.95C66.5949 11.9967 66.5599 12.02 66.5132 12.02C66.4899 12.02 66.4782 12.0083 66.4782 11.985C66.4782 11.9617 66.4549 11.95 66.4082 11.95C66.3849 11.95 66.3615 11.9617 66.3382 11.985C66.3382 12.0083 66.3265 12.02 66.3032 12.02C66.2799 12.02 66.2332 11.985 66.1632 11.915H66.1282C66.1282 12.055 66.0932 12.125 66.0232 12.125C65.9999 12.125 65.9649 12.1017 65.9182 12.055C65.6615 12.2183 65.2299 12.6033 64.6232 13.21C64.0165 13.7933 63.4799 14.47 63.0132 15.24C62.9199 15.4267 62.8032 15.6483 62.6632 15.905C62.5465 16.1617 62.4415 16.4533 62.3482 16.78C62.3249 16.92 62.2549 17.025 62.1382 17.095C62.0449 17.165 61.9749 17.2467 61.9282 17.34C61.9049 17.4333 61.9165 17.4917 61.9632 17.515C62.0099 17.5383 62.0449 17.5733 62.0682 17.62C62.0682 17.7133 62.0449 17.8417 61.9982 18.005C61.9749 18.1683 61.9632 18.32 61.9632 18.46C61.9632 18.9033 62.0449 19.2183 62.2082 19.405C62.3949 19.5917 62.6049 19.685 62.8382 19.685ZM83.0266 22.59C82.7466 22.59 82.4549 22.555 82.1516 22.485C81.8716 22.4383 81.5799 22.345 81.2766 22.205C81.1132 21.9717 80.8916 21.855 80.6116 21.855C80.4482 21.6683 80.2732 21.54 80.0866 21.47C79.9466 21.3767 79.7949 21.2367 79.6316 21.05C79.4916 20.8633 79.3632 20.7583 79.2466 20.735C78.9899 20.4317 78.7449 20.1167 78.5116 19.79C78.2782 19.4633 78.0682 19.125 77.8816 18.775V18.705C77.8816 18.5417 77.8232 18.4133 77.7066 18.32C77.6132 18.2267 77.5199 18.11 77.4266 17.97C77.3332 17.8067 77.3099 17.6433 77.3566 17.48C77.4032 17.2933 77.3332 17.13 77.1466 16.99C77.0766 16.78 77.0299 16.5467 77.0066 16.29C77.0066 16.0333 76.9482 15.8233 76.8316 15.66C76.7849 15.5667 76.7616 15.5083 76.7616 15.485C76.7616 15.3917 76.7849 15.31 76.8316 15.24C76.8782 15.17 76.9132 15.0883 76.9366 14.995C76.8199 14.9717 76.7616 14.8783 76.7616 14.715V14.61C76.7616 14.3533 76.8666 14.155 77.0766 14.015C77.2866 13.875 77.5082 13.805 77.7416 13.805C78.1149 13.805 78.3366 13.945 78.4066 14.225L78.5116 14.61C78.4182 14.7267 78.3716 14.82 78.3716 14.89C78.3716 14.96 78.4532 15.0767 78.6166 15.24C78.6399 15.3333 78.6516 15.4617 78.6516 15.625C79.1649 16.4183 79.8532 17.13 80.7166 17.76L80.7516 17.83C80.8449 17.9 80.9266 17.9583 80.9966 18.005C81.0666 18.0283 81.1482 18.0633 81.2416 18.11C81.4982 18.2733 81.6382 18.4017 81.6616 18.495C81.7082 18.5883 81.9066 18.635 82.2566 18.635C82.3266 18.635 82.3732 18.6933 82.3966 18.81C82.4432 18.9267 82.5016 19.0083 82.5716 19.055C82.6416 19.0783 82.7232 19.0783 82.8166 19.055C82.9099 19.0083 82.9916 19.0083 83.0616 19.055C83.1082 19.0783 83.1432 19.1133 83.1666 19.16C83.2132 19.1833 83.2482 19.2067 83.2716 19.23C83.3182 19.2533 83.5282 19.335 83.9016 19.475C84.2749 19.5917 84.6482 19.72 85.0216 19.86C85.4182 19.9767 85.6632 20.0467 85.7566 20.07C85.9432 19.86 86.1416 19.685 86.3516 19.545C86.5616 19.3817 86.7482 19.1833 86.9116 18.95C87.0749 18.9033 87.1682 18.8333 87.1916 18.74C87.2149 18.6233 87.2382 18.495 87.2616 18.355C87.3782 18.1917 87.4832 18.005 87.5766 17.795C87.6699 17.585 87.7749 17.41 87.8916 17.27C88.1482 16.9667 88.2999 16.64 88.3466 16.29C88.4166 15.94 88.5449 15.6483 88.7316 15.415C88.7782 15.3683 88.8482 15.3217 88.9416 15.275C89.0582 15.2283 89.1166 15.1817 89.1166 15.135V15.1C89.1166 14.8667 89.1632 14.6333 89.2566 14.4C89.3732 14.1433 89.4782 13.8983 89.5716 13.665C89.6649 13.5717 89.7232 13.4667 89.7466 13.35C89.7932 13.21 89.8516 13.0933 89.9216 13C90.0149 12.9067 90.0849 12.825 90.1316 12.755C90.2016 12.685 90.2249 12.58 90.2016 12.44L90.2716 11.95C90.2716 11.8333 90.2949 11.6933 90.3416 11.53C90.4116 11.3433 90.4582 11.1917 90.4816 11.075C90.5282 10.8417 90.5982 10.5617 90.6916 10.235C90.7849 9.885 90.8782 9.61667 90.9716 9.43C91.1349 9.12667 91.2516 8.81167 91.3216 8.485C91.3916 8.135 91.4732 7.80833 91.5666 7.505C91.7299 7.41167 91.8116 7.26 91.8116 7.05C91.8582 6.95667 91.9166 6.735 91.9866 6.385C92.0566 6.035 92.0916 5.81333 92.0916 5.72C92.0216 5.72 91.9399 5.69667 91.8466 5.65C91.7766 5.41667 91.7999 5.14833 91.9166 4.845C92.0332 4.51833 92.1849 4.20333 92.3716 3.9C92.5582 3.59667 92.6982 3.35167 92.7916 3.165C92.9549 2.90833 93.1532 2.68667 93.3866 2.5C93.6199 2.29 93.8999 2.185 94.2266 2.185C94.3432 2.185 94.4716 2.19667 94.6116 2.22C94.7516 2.22 94.8566 2.26667 94.9266 2.36C95.2299 2.47667 95.3816 2.65167 95.3816 2.885C95.3816 3.04833 95.3232 3.24667 95.2066 3.48C95.0899 3.69 95.0082 3.9 94.9616 4.11C94.6816 4.22667 94.5182 4.51833 94.4716 4.985C94.4482 5.42833 94.4016 5.77833 94.3316 6.035C94.3082 6.15167 94.2616 6.245 94.1916 6.315C94.1216 6.385 94.1449 6.49 94.2616 6.63V6.84L94.1566 6.91L94.2966 7.155C94.2966 7.225 94.2966 7.37667 94.2966 7.61C94.3199 7.82 94.3432 8.03 94.3666 8.24C94.3899 8.42667 94.3899 8.53167 94.3666 8.555C94.3432 8.60167 94.2966 8.625 94.2266 8.625C94.0866 8.625 93.9932 8.56667 93.9466 8.45C93.8766 8.26333 93.8416 8.05333 93.8416 7.82C93.8649 7.58667 93.8066 7.37667 93.6666 7.19C93.6432 7.12 93.6316 7.05 93.6316 6.98C93.6316 6.91 93.6316 6.86333 93.6316 6.84C93.6316 6.74667 93.6316 6.67667 93.6316 6.63C93.6549 6.58333 93.6666 6.54833 93.6666 6.525C93.6666 6.47833 93.5732 6.315 93.3866 6.035V5.685C93.1299 6.01167 92.9432 6.33833 92.8266 6.665C92.7099 6.75833 92.6399 6.875 92.6166 7.015C92.5932 7.155 92.5582 7.28333 92.5116 7.4C92.2782 8.00667 92.0449 8.61333 91.8116 9.22C91.6016 9.82667 91.3916 10.4333 91.1816 11.04C91.0182 11.1333 90.9366 11.2617 90.9366 11.425C90.9366 11.565 90.9132 11.705 90.8666 11.845L90.2016 13.665C90.0382 13.7117 89.9566 13.7933 89.9566 13.91C89.9799 14.0033 89.9916 14.1083 89.9916 14.225C89.9916 14.3883 89.9449 14.54 89.8516 14.68C89.7816 14.7967 89.7232 14.925 89.6766 15.065C89.3499 15.975 88.9532 16.8967 88.4866 17.83C88.0432 18.7633 87.5182 19.615 86.9116 20.385C87.2382 20.455 87.5532 20.5133 87.8566 20.56C88.1599 20.63 88.4632 20.6883 88.7666 20.735C89.0699 20.7817 89.4432 20.8283 89.8866 20.875C90.3532 20.9217 90.7032 20.9683 90.9366 21.015C91.1932 21.0617 91.4732 21.0967 91.7766 21.12C92.0799 21.1433 92.3599 21.155 92.6166 21.155H92.8616C92.9549 21.155 93.0249 21.155 93.0716 21.155C93.1416 21.1783 93.2349 21.2133 93.3516 21.26C93.3982 21.2833 93.4449 21.2717 93.4916 21.225C93.5382 21.2017 93.5849 21.19 93.6316 21.19C93.7482 21.1667 93.8649 21.155 93.9816 21.155C94.0982 21.1783 94.2032 21.19 94.2966 21.19C94.3432 21.1667 94.4016 21.155 94.4716 21.155C94.5649 21.155 94.6466 21.1667 94.7166 21.19C94.8099 21.2367 94.8916 21.26 94.9616 21.26C95.0782 21.26 95.1716 21.2367 95.2416 21.19C95.3116 21.1667 95.3932 21.155 95.4866 21.155C95.6032 21.2483 95.7082 21.295 95.8016 21.295C95.8949 21.295 95.9882 21.2367 96.0816 21.12C96.3382 21.0967 96.6416 21.05 96.9916 20.98C97.3649 20.91 97.5166 20.6767 97.4466 20.28C97.4232 20.0933 97.3882 19.9767 97.3416 19.93C97.2949 19.8833 97.2132 19.8017 97.0966 19.685C97.0032 19.615 96.9216 19.5217 96.8516 19.405C96.7816 19.2883 96.6882 19.2183 96.5716 19.195C96.5249 19.1483 96.5016 19.0783 96.5016 18.985C96.5016 18.845 96.5832 18.775 96.7466 18.775C96.8399 18.775 96.9332 18.8217 97.0266 18.915C97.1199 18.9617 97.1782 19.0317 97.2016 19.125C97.2482 19.2183 97.3182 19.3 97.4116 19.37C97.4582 19.4633 97.5399 19.5333 97.6566 19.58C97.7732 19.6267 97.8782 19.6967 97.9716 19.79C98.2282 20.1633 98.3566 20.5017 98.3566 20.805C98.3566 21.2483 98.1582 21.6217 97.7616 21.925C97.3649 22.2283 96.8982 22.3917 96.3616 22.415C96.3149 22.3683 96.2449 22.345 96.1516 22.345C96.0582 22.345 95.9766 22.3567 95.9066 22.38C95.8599 22.4033 95.7899 22.415 95.6966 22.415C95.2532 22.3917 94.7982 22.345 94.3316 22.275C93.8649 22.205 93.4099 22.1467 92.9666 22.1C92.9199 22.1 92.8732 22.0883 92.8266 22.065C92.7799 22.065 92.7332 22.065 92.6866 22.065C92.5232 21.9483 92.3132 21.89 92.0566 21.89C91.8232 21.89 91.6132 21.8667 91.4266 21.82C91.3566 21.7967 91.1932 21.7617 90.9366 21.715C90.7032 21.6683 90.4699 21.6217 90.2366 21.575C90.0266 21.5283 89.8982 21.5167 89.8516 21.54C89.5949 21.4933 89.3266 21.4233 89.0466 21.33C88.7899 21.26 88.5332 21.2133 88.2766 21.19C87.9966 21.1433 87.7049 21.0733 87.4016 20.98C87.1216 20.91 86.8416 20.84 86.5616 20.77C86.0482 21.33 85.4999 21.7733 84.9166 22.1C84.3332 22.4267 83.7032 22.59 83.0266 22.59ZM82.7816 21.995C83.3649 21.995 83.8549 21.8433 84.2516 21.54C84.6716 21.2367 85.0682 20.875 85.4416 20.455C85.2082 20.4083 84.9749 20.35 84.7416 20.28C84.5082 20.21 84.2749 20.1283 84.0416 20.035C83.8316 19.9417 83.6449 19.8717 83.4816 19.825C83.3416 19.755 83.1549 19.6967 82.9216 19.65C82.8282 19.6267 82.7232 19.5917 82.6066 19.545C82.4899 19.4983 82.3732 19.4633 82.2566 19.44C82.0932 19.37 81.9416 19.2767 81.8016 19.16C81.6616 19.02 81.4982 18.9733 81.3116 19.02C81.1949 18.9733 81.0666 18.9267 80.9266 18.88C80.8099 18.8333 80.6932 18.775 80.5766 18.705C80.4599 18.6117 80.3782 18.53 80.3316 18.46C80.2849 18.3667 80.1682 18.3433 79.9816 18.39L79.7016 18.25C79.6082 18.1567 79.5266 18.0633 79.4566 17.97C79.4099 17.8767 79.3049 17.83 79.1416 17.83C78.9549 17.83 78.7449 17.725 78.5116 17.515C78.2782 17.2817 78.1032 17.0833 77.9866 16.92C78.1032 17.2233 78.2199 17.515 78.3366 17.795C78.4532 18.075 78.5699 18.355 78.6866 18.635C78.7332 18.7983 78.7916 18.9383 78.8616 19.055C78.9549 19.1483 78.9782 19.2767 78.9316 19.44C78.9316 19.4867 78.9899 19.545 79.1066 19.615C79.2232 19.6617 79.3282 19.755 79.4216 19.895C79.4682 20.0817 79.5266 20.1867 79.5966 20.21C79.6666 20.2333 79.7366 20.3033 79.8066 20.42C79.9932 20.63 80.0982 20.7933 80.1216 20.91C80.1449 21.0267 80.3549 21.1083 80.7516 21.155L81.0666 21.365C81.1599 21.5283 81.2649 21.61 81.3816 21.61C81.4982 21.6333 81.6266 21.6683 81.7666 21.715C81.9532 21.7617 82.1166 21.82 82.2566 21.89C82.4199 21.96 82.5949 21.995 82.7816 21.995ZM105.068 19.965C104.718 19.965 104.461 19.8133 104.298 19.51C104.274 19.44 104.216 19.335 104.123 19.195C104.053 19.055 103.994 18.9383 103.948 18.845V18.81C103.948 18.7633 103.959 18.7167 103.983 18.67C104.006 18.6233 104.018 18.5767 104.018 18.53C104.018 18.4367 103.994 18.355 103.948 18.285C103.901 18.1917 103.878 18.0983 103.878 18.005C103.878 17.6783 103.971 17.2933 104.158 16.85C104.368 16.4067 104.531 16.0217 104.648 15.695C104.694 15.5083 104.811 15.2867 104.998 15.03C105.021 15.0067 105.044 14.995 105.068 14.995C105.114 14.995 105.149 14.9833 105.173 14.96C105.219 14.89 105.243 14.82 105.243 14.75C105.266 14.6567 105.289 14.575 105.313 14.505C105.336 14.4583 105.383 14.435 105.453 14.435C105.523 14.435 105.569 14.4117 105.593 14.365C105.616 14.3183 105.581 14.295 105.488 14.295C105.394 14.295 105.359 14.2717 105.383 14.225C105.546 13.9217 105.721 13.6067 105.908 13.28C106.118 12.9533 106.258 12.7433 106.328 12.65C106.304 12.6733 106.293 12.65 106.293 12.58C106.293 12.4867 106.269 12.4517 106.223 12.475C106.199 12.4983 106.141 12.5567 106.048 12.65C105.954 12.7433 105.884 12.8133 105.838 12.86C105.721 12.9533 105.581 13.0817 105.418 13.245C105.254 13.4083 105.149 13.5133 105.103 13.56C105.033 13.5833 104.939 13.6883 104.823 13.875C104.706 14.0383 104.624 14.1433 104.578 14.19C104.484 14.2833 104.391 14.33 104.298 14.33C104.251 14.33 104.216 14.3067 104.193 14.26C104.193 14.19 104.216 14.12 104.263 14.05C104.309 14.0033 104.356 13.945 104.403 13.875C104.449 13.7817 104.484 13.7117 104.508 13.665C104.531 13.6417 104.566 13.6067 104.613 13.56C104.659 13.49 104.683 13.4433 104.683 13.42L104.963 13.105C104.986 13.0817 105.033 13.0817 105.103 13.105C105.173 13.105 105.219 13.0933 105.243 13.07C105.266 13.0233 105.231 13 105.138 13C105.068 12.9767 105.044 12.9533 105.068 12.93C105.278 12.5567 105.546 12.195 105.873 11.845C106.199 11.495 106.421 11.25 106.538 11.11C106.654 10.97 106.806 10.865 106.993 10.795C107.203 10.7017 107.401 10.655 107.588 10.655C107.751 10.655 107.868 10.6667 107.938 10.69C108.078 10.7367 108.241 10.8067 108.428 10.9C108.638 10.97 108.766 11.075 108.813 11.215C108.883 11.355 108.836 11.5767 108.673 11.88C108.509 12.1833 108.311 12.4867 108.078 12.79C107.868 13.07 107.693 13.2567 107.553 13.35C107.529 13.3733 107.471 13.385 107.378 13.385C107.284 13.385 107.168 13.385 107.028 13.385C106.888 13.3617 106.806 13.3733 106.783 13.42C106.713 13.5133 106.631 13.6067 106.538 13.7C106.444 13.77 106.374 13.8633 106.328 13.98C106.304 14.12 106.269 14.2367 106.223 14.33C106.199 14.4233 106.129 14.5633 106.013 14.75C105.989 14.7967 105.943 14.8783 105.873 14.995C105.803 15.0883 105.756 15.1583 105.733 15.205C105.569 15.7183 105.418 16.2083 105.278 16.675C105.161 17.1183 105.103 17.4917 105.103 17.795C105.103 18.0983 105.196 18.3667 105.383 18.6C105.569 18.81 105.814 18.915 106.118 18.915C106.468 18.915 106.841 18.7983 107.238 18.565C107.471 18.4717 107.728 18.2967 108.008 18.04C108.054 17.9933 108.089 17.9583 108.113 17.935C108.159 17.8883 108.206 17.8533 108.253 17.83H108.358C108.474 17.83 108.533 17.8767 108.533 17.97C108.533 18.0633 108.451 18.18 108.288 18.32C108.194 18.39 108.101 18.4483 108.008 18.495C107.938 18.5417 107.856 18.6 107.763 18.67C107.646 18.74 107.518 18.8567 107.378 19.02C107.238 19.16 107.074 19.23 106.888 19.23H106.853C106.783 19.23 106.724 19.2183 106.678 19.195C106.631 19.1483 106.584 19.1367 106.538 19.16C106.468 19.1833 106.468 19.23 106.538 19.3C106.631 19.3467 106.643 19.3933 106.573 19.44L106.293 19.58C105.779 19.8367 105.371 19.965 105.068 19.965ZM99.3978 19.755C99.2578 19.755 99.0828 19.6033 98.8728 19.3C98.7328 19.1133 98.6628 18.8217 98.6628 18.425C98.6628 18.0283 98.7328 17.5967 98.8728 17.13C99.0361 16.6633 99.2344 16.255 99.4678 15.905C99.7244 15.3917 99.8994 15.0067 99.9928 14.75C100.086 14.4933 100.179 14.2833 100.273 14.12C100.273 14.0967 100.249 14.0733 100.203 14.05C100.156 14.0267 100.133 13.98 100.133 13.91C99.9928 13.8167 99.8411 13.6883 99.6778 13.525C99.5378 13.3383 99.5261 13.1633 99.6428 13C99.6894 12.9533 99.7244 12.93 99.7478 12.93C99.7711 12.9067 99.7828 12.895 99.7828 12.895V12.825C99.7828 12.7317 99.8178 12.6733 99.8878 12.65C99.9811 12.6267 100.028 12.5917 100.028 12.545C100.074 12.2183 100.343 11.9733 100.833 11.81C101.346 11.6467 101.801 11.565 102.198 11.565C102.641 11.565 102.863 11.635 102.863 11.775C102.863 11.845 102.781 11.9267 102.618 12.02C102.548 12.0433 102.431 12.1367 102.268 12.3C102.104 12.4633 101.953 12.6617 101.813 12.895L101.568 13.315L101.323 13.63C101.183 13.8867 101.031 14.155 100.868 14.435C100.728 14.6917 100.494 15.1817 100.168 15.905C100.074 16.1383 99.9928 16.36 99.9228 16.57C99.8761 16.78 99.8761 16.9433 99.9228 17.06C99.9461 17.0833 99.8644 17.165 99.6778 17.305C99.5144 17.445 99.4444 17.5267 99.4678 17.55C99.4911 17.55 99.5261 17.5617 99.5728 17.585C99.6194 17.585 99.6778 17.585 99.7478 17.585C99.8878 17.585 100.028 17.5617 100.168 17.515C100.238 17.4917 100.296 17.445 100.343 17.375C100.389 17.2817 100.424 17.235 100.448 17.235C100.588 17.235 100.739 17.2 100.903 17.13C101.159 17.0133 101.474 16.78 101.848 16.43C101.894 16.3833 101.988 16.3483 102.128 16.325C102.268 16.2783 102.384 16.1967 102.478 16.08C102.758 15.8233 102.921 15.6717 102.968 15.625C103.014 15.555 103.154 15.4033 103.388 15.17C103.388 15.1467 103.434 15.0417 103.528 14.855C103.621 14.645 103.668 14.5283 103.668 14.505C103.714 14.3883 103.761 14.33 103.808 14.33C103.901 14.33 103.971 14.4117 104.018 14.575C104.088 14.7383 104.088 14.8783 104.018 14.995C103.994 15.0183 103.936 15.065 103.843 15.135C103.773 15.205 103.714 15.2633 103.668 15.31L103.213 15.765L102.268 16.605C102.244 16.6283 102.221 16.6633 102.198 16.71C102.174 16.7567 102.139 16.8033 102.093 16.85L101.778 17.34C101.754 17.3867 101.708 17.3867 101.638 17.34C101.568 17.27 101.474 17.2817 101.358 17.375C101.334 17.3983 101.311 17.445 101.288 17.515C101.288 17.585 101.276 17.6433 101.253 17.69C101.229 17.76 101.229 17.8067 101.253 17.83C101.276 17.83 101.288 17.8417 101.288 17.865C101.264 17.935 101.218 17.9817 101.148 18.005C101.101 18.0283 101.054 18.0633 101.008 18.11C100.984 18.1333 100.984 18.1683 101.008 18.215C101.031 18.2617 101.019 18.3083 100.973 18.355C100.949 18.425 100.926 18.4483 100.903 18.425C100.879 18.4017 100.844 18.4133 100.798 18.46C100.774 18.4833 100.739 18.5183 100.693 18.565C100.669 18.5883 100.634 18.6117 100.588 18.635C100.401 18.705 100.296 18.7983 100.273 18.915C100.249 19.0317 100.168 19.16 100.028 19.3C99.7244 19.6033 99.5144 19.755 99.3978 19.755ZM108.07 22.03C107.976 22.03 107.883 21.9833 107.79 21.89C107.696 21.7967 107.661 21.7383 107.685 21.715C107.708 21.5983 107.743 21.4817 107.79 21.365C107.836 21.2483 107.883 21.1433 107.93 21.05C108.186 20.5133 108.536 20.0117 108.98 19.545C109.446 19.055 109.936 18.5883 110.45 18.145C110.263 18.0983 110.146 18.075 110.1 18.075C109.89 18.0983 109.726 18.145 109.61 18.215C109.516 18.285 109.341 18.355 109.085 18.425C108.991 18.4483 108.91 18.4717 108.84 18.495C108.77 18.495 108.711 18.495 108.665 18.495C108.478 18.495 108.385 18.4367 108.385 18.32C108.385 18.2733 108.408 18.215 108.455 18.145C108.525 18.0517 108.571 17.9933 108.595 17.97C108.875 17.6667 109.19 17.41 109.54 17.2C109.89 16.99 110.263 16.885 110.66 16.885C110.986 16.885 111.336 16.9783 111.71 17.165L112.13 16.815C112.363 16.6283 112.596 16.4417 112.83 16.255C113.063 16.045 113.296 15.835 113.53 15.625C113.436 15.625 113.425 15.6133 113.495 15.59C113.565 15.5433 113.553 15.52 113.46 15.52H113.39C113.086 15.52 112.935 15.5667 112.935 15.66C112.935 15.7067 112.818 15.765 112.585 15.835C112.351 15.8817 112.223 15.905 112.2 15.905L111.08 16.15C110.916 16.15 110.835 16.0333 110.835 15.8C110.811 15.6833 110.846 15.5783 110.94 15.485C110.963 15.4617 110.986 15.45 111.01 15.45L111.675 15.345C111.815 15.3217 112.001 15.2983 112.235 15.275C112.468 15.2517 112.666 15.2167 112.83 15.17L113.845 15.065H114.055C114.311 14.785 114.556 14.54 114.79 14.33C114.836 14.3067 114.883 14.3183 114.93 14.365C114.976 14.3883 115.011 14.3883 115.035 14.365C115.081 14.3183 115.105 14.26 115.105 14.19C115.128 14.12 115.175 14.0617 115.245 14.015C115.478 13.8283 115.7 13.6067 115.91 13.35C116.143 13.0933 116.388 12.8483 116.645 12.615H116.54C116.33 12.615 116.143 12.5567 115.98 12.44H115.875C115.735 12.44 115.56 12.4167 115.35 12.37C115.163 12.3 115.081 12.2183 115.105 12.125L115.035 12.02C115.011 12.02 114.976 12.0317 114.93 12.055C114.906 12.055 114.871 12.055 114.825 12.055C114.731 12.055 114.521 12.0083 114.195 11.915C113.868 11.8217 113.541 11.7283 113.215 11.635C113.075 11.5883 112.935 11.565 112.795 11.565C112.678 11.565 112.596 11.53 112.55 11.46H112.48C112.176 11.6233 111.908 11.8217 111.675 12.055C111.441 12.265 111.301 12.4983 111.255 12.755C111.231 12.8483 111.161 12.895 111.045 12.895C110.951 12.8717 110.916 12.8133 110.94 12.72C110.986 12.3933 111.138 12.1017 111.395 11.845C111.675 11.5883 111.966 11.3783 112.27 11.215C112.293 11.1917 112.305 11.18 112.305 11.18C112.305 11.1567 112.305 11.145 112.305 11.145C112.398 11.005 112.561 10.865 112.795 10.725C113.028 10.5617 113.226 10.4567 113.39 10.41C113.413 10.3633 113.448 10.3283 113.495 10.305C113.565 10.2817 113.611 10.2583 113.635 10.235C113.705 10.1883 113.786 10.165 113.88 10.165C113.926 10.165 113.973 10.1767 114.02 10.2C114.066 10.2 114.136 10.2117 114.23 10.235C114.323 10.1883 114.405 10.165 114.475 10.165C114.568 10.1417 114.65 10.13 114.72 10.13C114.766 10.13 114.883 10.1533 115.07 10.2C115.256 10.2233 115.408 10.3283 115.525 10.515C116.108 11.3083 116.82 11.775 117.66 11.915C117.753 11.9383 117.905 11.9383 118.115 11.915C118.348 11.8917 118.511 11.8917 118.605 11.915C119.025 11.6817 119.375 11.425 119.655 11.145C119.888 10.9583 120.016 10.7717 120.04 10.585C120.04 10.5383 120.075 10.515 120.145 10.515C120.215 10.4917 120.25 10.4683 120.25 10.445C120.32 10.3517 120.39 10.305 120.46 10.305C120.646 10.305 120.693 10.3867 120.6 10.55L120.32 10.9C120.32 10.9467 120.285 10.9933 120.215 11.04C119.795 11.4133 119.398 11.8333 119.025 12.3C118.675 12.7433 118.266 13.1167 117.8 13.42C117.776 13.4433 117.73 13.455 117.66 13.455C117.543 13.455 117.403 13.4317 117.24 13.385C117.1 13.315 116.983 13.3033 116.89 13.35C116.54 13.6067 116.19 13.875 115.84 14.155C115.49 14.4117 115.128 14.6917 114.755 14.995L115.28 14.925C115.35 14.9017 115.373 14.9017 115.35 14.925C115.35 14.9483 115.385 14.96 115.455 14.96C115.571 14.9367 115.641 14.925 115.665 14.925C115.711 14.9017 115.781 14.89 115.875 14.89C116.295 14.8433 116.668 14.82 116.995 14.82C117.088 14.82 117.193 14.82 117.31 14.82C117.426 14.82 117.52 14.8317 117.59 14.855C117.636 14.855 117.648 14.8667 117.625 14.89C117.625 14.89 117.636 14.9017 117.66 14.925C117.706 14.925 117.741 14.925 117.765 14.925C117.788 14.9017 117.823 14.8783 117.87 14.855C117.893 14.855 117.928 14.855 117.975 14.855C118.021 14.855 118.056 14.8667 118.08 14.89C118.243 14.89 118.348 14.9017 118.395 14.925C118.511 14.9483 118.57 14.995 118.57 15.065C118.593 15.135 118.546 15.1583 118.43 15.135C118.406 15.135 118.371 15.135 118.325 15.135C118.301 15.1117 118.266 15.1 118.22 15.1H117.975C117.788 15.1 117.566 15.1 117.31 15.1C117.076 15.1 116.855 15.1117 116.645 15.135C116.621 15.135 116.61 15.1233 116.61 15.1C116.61 15.0533 116.586 15.03 116.54 15.03C116.54 15.03 116.516 15.0533 116.47 15.1C116.423 15.1233 116.388 15.135 116.365 15.135C116.341 15.135 116.318 15.1467 116.295 15.17C116.271 15.17 116.236 15.17 116.19 15.17L114.055 15.555L114.02 15.59C113.74 15.87 113.448 16.1383 113.145 16.395C112.841 16.6517 112.526 16.9083 112.2 17.165C112.176 17.1883 112.153 17.2233 112.13 17.27C112.106 17.2933 112.071 17.3167 112.025 17.34C112.445 17.62 112.83 17.9583 113.18 18.355C113.553 18.7517 113.868 19.0783 114.125 19.335C114.638 19.825 115.303 20.1517 116.12 20.315C116.936 20.4783 117.636 20.525 118.22 20.455C118.43 20.4083 118.605 20.315 118.745 20.175C118.908 20.035 119.036 19.8833 119.13 19.72V19.685C119.13 19.6617 119.153 19.6267 119.2 19.58C119.27 19.5333 119.316 19.5333 119.34 19.58C119.363 19.58 119.34 19.6267 119.27 19.72C119.223 19.8133 119.2 19.86 119.2 19.86C119.246 19.8833 119.27 19.93 119.27 20C119.27 20.0933 119.281 20.14 119.305 20.14C119.351 20.14 119.398 20.105 119.445 20.035C119.515 19.965 119.55 19.9183 119.55 19.895C119.62 19.7783 119.666 19.6617 119.69 19.545C119.736 19.405 119.771 19.2883 119.795 19.195C119.865 18.915 119.9 18.6 119.9 18.25C119.9 17.9 119.841 17.5733 119.725 17.27C119.608 16.9433 119.386 16.7567 119.06 16.71C119.013 16.71 118.99 16.6867 118.99 16.64C118.99 16.5933 119.025 16.535 119.095 16.465C119.165 16.395 119.235 16.3717 119.305 16.395C119.701 16.4417 119.958 16.64 120.075 16.99C120.215 17.3167 120.285 17.6783 120.285 18.075C120.285 18.425 120.25 18.7633 120.18 19.09C120.156 19.23 120.11 19.3933 120.04 19.58C119.993 19.7433 119.911 19.9067 119.795 20.07C119.655 20.7233 119.34 21.19 118.85 21.47C118.383 21.75 117.87 21.89 117.31 21.89C116.82 21.89 116.341 21.7967 115.875 21.61C115.408 21.4233 115.023 21.1667 114.72 20.84C114.44 20.5133 114.16 20.1633 113.88 19.79C113.6 19.4167 113.296 19.0783 112.97 18.775C112.806 18.6117 112.631 18.46 112.445 18.32C112.258 18.1567 112.036 18.075 111.78 18.075C111.64 18.075 111.535 18.0867 111.465 18.11C111.255 18.18 111.08 18.215 110.94 18.215L110.135 18.845C109.925 19.0083 109.726 19.195 109.54 19.405C109.353 19.615 109.166 19.8133 108.98 20C108.956 20.0233 108.91 20.0817 108.84 20.175C108.793 20.2917 108.758 20.35 108.735 20.35C108.525 20.63 108.385 20.875 108.315 21.085C108.315 21.1083 108.338 21.1783 108.385 21.295C108.431 21.435 108.443 21.54 108.42 21.61L108.175 21.995C108.151 22.0183 108.116 22.03 108.07 22.03Z" fill="#CCCCCC"/>
</svg>
